<svg viewBox="0 0 17 20" fill="none" xmlns="http://www.w3.org/2000/svg">
  <path d="M8 13A5.5 5.5 0 108 2a5.5 5.5 0 000 11z" fill="#BFBFBF"/>
  <path fill-rule="evenodd" clip-rule="evenodd" d="M16.953 7.54a8.98 8.98 0 00-3.6-7.195l-.983 1.31a7.343 7.343 0 012.946 5.885 7.367 7.367 0 01-7.367 7.367 7.34 7.34 0 01-5.885-2.946l-1.31.983a8.982 8.982 0 006.377 3.563v1.674H3.038v1.637h9.823v-1.637H8.768v-1.673a9.005 9.005 0 008.185-8.968z" fill="url(#paint0_linear)"/>
  <defs>
    <linearGradient id="paint0_linear" x1=".75" y1="19.82" x2="16.95" y2="19.82" gradientUnits="userSpaceOnUse">
      <stop stop-color="#3250FC"/>
      <stop offset=".33" stop-color="#9E70FF"/>
      <stop offset=".67" stop-color="#2ACEEB"/>
      <stop offset="1" stop-color="#2CBF38"/>
    </linearGradient>
  </defs>
</svg>
