<svg xmlns="http://www.w3.org/2000/svg" viewBox="0 0 227.63 47.67">
  <path d="M92.46 13.33c0-2.62 2.52-4.91 7.29-4.91 3.48 0 6.34 1.76 7.89 5.88.28.76.69.95 1.7.63 2.32-.72 5.67-1.79 5.67-1.79a1 1 0 00.7-1.31c0-.16-.17-.6-.17-.6C113.46 4 107.54 0 99.42 0 89.6 0 83.31 5.81 83.31 13.18c0 16 24.18 11.82 24.18 20.44 0 3.24-3.7 5.52-8.36 5.52s-9.81-2.06-12.63-5.43c-.84-1-1.17-1.14-2.18-1.14h-5.2a2.5 2.5 0 00-2.35 1.14A17.15 17.15 0 0164 39.14c-7.57 0-13.78-4.27-14.83-12.91h29.44a1.66 1.66 0 001.7-1.14 14 14 0 00.79-4.54C81.1 9 73.93 0 61.21 0c-11.35 0-19.52 7.35-21.3 18.06H37.3v-1C37.29 5.8 30.79 0 19.89 0 11.35 0 4.85 4.24 2 11.13a1 1 0 00.58 1.53l5.61 2.21c.94.37 1.42.29 1.75-.38C12.2 9.89 15 8.32 19.7 8.32c5.34 0 8.57 3.26 8.57 8.38v1.38H24c-17.61 0-24 7-24 15.73 0 7.95 5.9 13.86 14.8 13.86a19.08 19.08 0 0013.7-5.85c.15 1.78.38 3.72.45 4.25s.4 1 1.07 1h6.18c.77 0 1.22-.4 1.22-1.11l-.09-19.89h2.39c1.4 13.29 10.77 21.6 23.53 21.6 7.14 0 12.81-1.86 18.39-6.69 4.89 4.75 10.16 6.69 17.62 6.69 9.66 0 17.35-5.61 17.35-14.12 0-16.37-24.15-12.61-24.15-20.22zM16.19 39.11c-4.5 0-7.07-2.48-7.07-6 0-4.23 3.79-7 16.27-7h2.88c0 7.89-5.61 13-12.08 13zM61.36 8.32c5.89 0 10.57 4.08 10.83 9.87h-23c1.1-6.32 5.93-9.87 12.17-9.87zm71.24 6.91h13.49q5 0 7.65 2.76a7.1 7.1 0 011.51 2.38 8.17 8.17 0 01.54 3.05 6.49 6.49 0 01-1.36 4.29 7.83 7.83 0 01-3.76 2.38v.13a9.88 9.88 0 012.51 1 7.91 7.91 0 012 1.6 7.09 7.09 0 011.41 2.18 8.22 8.22 0 01.49 2.89 9.32 9.32 0 01-.6 3.41 8.15 8.15 0 01-1.72 2.7 9.06 9.06 0 01-3.36 2.22 12.29 12.29 0 01-4.6.81h-14.2zm13 13.62a7 7 0 004.56-1.36 4.75 4.75 0 001.62-3.85 4.61 4.61 0 00-1.49-3.64 6.1 6.1 0 00-4.16-1.31h-9.52v10.16zm1 14.59a7 7 0 005-1.6 5.21 5.21 0 001.43-3.7 5.26 5.26 0 00-1.89-4.44 7.6 7.6 0 00-4.79-1.47h-9.74v11.21zm17.3-15.57h.1a9.35 9.35 0 012.78-2.9 7 7 0 014.07-1.2 3.54 3.54 0 01.8.07 4.14 4.14 0 01.67.2v3.47h-.13a4.15 4.15 0 00-.74-.18 6.85 6.85 0 00-.87 0 6.76 6.76 0 00-4.67 1.87 6.25 6.25 0 00-1.47 2.2 7.77 7.77 0 00-.53 2.91v12.74h-3.61V24h3.61zm28.26 19.18a3.63 3.63 0 01-4-3.43 12.64 12.64 0 01-1.25 1.31 9 9 0 01-1.65 1.18 20.74 20.74 0 01-2.11 1 6.63 6.63 0 01-2.65.51 11.57 11.57 0 01-3.07-.39 6.84 6.84 0 01-2.43-1.14 5.86 5.86 0 01-1.65-2 6.53 6.53 0 01-.6-2.9 6.78 6.78 0 01.76-3.39 6 6 0 012.09-2.13 10.94 10.94 0 013.18-1.24c1.23-.29 2.56-.55 4-.79q1.2-.18 2.22-.39a8 8 0 001.76-.54 2.73 2.73 0 001.13-.91 2.53 2.53 0 00.4-1.51 3.68 3.68 0 00-1.33-3.06 6 6 0 00-3.83-1.06 6.37 6.37 0 00-4.23 1.22 5.06 5.06 0 00-1.51 3.85h-3.47a9 9 0 01.62-3.09 6.6 6.6 0 011.72-2.47 8.23 8.23 0 012.79-1.68 12.09 12.09 0 014-.6 14.47 14.47 0 013.38.37 7.46 7.46 0 012.68 1.23 5.71 5.71 0 011.78 2.25 8.18 8.18 0 01.65 3.44v10.93a3.52 3.52 0 00.49 2.09 1.16 1.16 0 001.06.49 3.34 3.34 0 00.89-.14h.14v2.63a6.93 6.93 0 01-.8.24 4.64 4.64 0 01-1.16.12zm-10.86-2.14a7.55 7.55 0 003.12-.6 6.94 6.94 0 002.18-1.49 6.37 6.37 0 001.27-2 5.88 5.88 0 00.42-2.12v-3.89a9.07 9.07 0 01-2.34 1 29.27 29.27 0 01-2.91.69c-.89.18-1.74.35-2.54.53a7.2 7.2 0 00-2.07.78 4 4 0 00-1.38 1.31 4.42 4.42 0 00-.09 3.94 3.15 3.15 0 001.09 1.14 4.59 4.59 0 001.52.55 9 9 0 001.73.16zm23.37 2.76q-4.75 0-7.34-2.12a8.09 8.09 0 01-2.85-6h3.7a6.36 6.36 0 00.75 2.5 4.7 4.7 0 001.45 1.55 5.85 5.85 0 002 .83 11.35 11.35 0 002.4.24 6.17 6.17 0 004.1-1.09 3.46 3.46 0 001.24-2.71 3.58 3.58 0 00-.33-1.63 2.79 2.79 0 00-1.07-1.09 7.33 7.33 0 00-1.87-.76c-.76-.21-1.67-.43-2.74-.67s-2.21-.49-3.24-.76a9.86 9.86 0 01-2.74-1.14 5.57 5.57 0 01-1.89-1.94 6 6 0 01-.71-3.09 5.64 5.64 0 012.11-4.62q2.12-1.73 6.16-1.72c2.88 0 5 .63 6.48 1.91a8 8 0 012.56 5.29h-3.7a4.75 4.75 0 00-1.55-3.31 6.09 6.09 0 00-3.88-1 5.3 5.3 0 00-3.56 1 3 3 0 00-1.06 2.35 2.69 2.69 0 00.4 1.54 2.9 2.9 0 001.2 1 8.6 8.6 0 002 .67l2.62.58q1.74.36 3.27.78a9.37 9.37 0 012.72 1.21 5.52 5.52 0 011.84 2 6.84 6.84 0 01.67 3.26 6.63 6.63 0 01-.67 3.06 5.89 5.89 0 01-1.87 2.19 8.63 8.63 0 01-2.87 1.32 14 14 0 01-3.73.37zm11.77-32.44h3.61v4.45h-3.61zm0 8.81h3.61v23h-3.61zm7.56-8.81h3.61v31.82H224z" fill="#fff" data-name="Layer 2"/>
</svg>
