<svg xmlns="http://www.w3.org/2000/svg" viewBox="0 0 36 36">
  <g fill="none" fill-rule="evenodd">
    <circle fill="#231F20" cx="18" cy="18" r="18"/>
    <path d="M22.838 7.2h-9.676A5.966 5.966 0 007.2 13.162v9.676a5.966 5.966 0 005.962 5.962h9.676a5.966 5.966 0 005.962-5.962v-9.676A5.966 5.966 0 0022.838 7.2zm4.042 15.638a4.049 4.049 0 01-4.042 4.042h-9.676a4.044 4.044 0 01-4.042-4.042v-9.676a4.046 4.046 0 014.042-4.042h9.676a4.049 4.049 0 014.042 4.042v9.676z" fill="#FFF" fill-rule="nonzero"/>
    <path d="M18 12.434a5.566 5.566 0 100 11.132 5.566 5.566 0 000-11.132zm0 9.214A3.648 3.648 0 1121.65 18 3.655 3.655 0 0118 21.648zM23.798 10.8a1.406 1.406 0 10.005 2.813 1.406 1.406 0 00-.005-2.813z" fill="#FFF" fill-rule="nonzero"/>
  </g>
</svg>
