<svg xmlns="http://www.w3.org/2000/svg" fill="none" viewBox="0 0 32 32">
  <path fill="#BFBFBF" d="M10.886 28.446l1.102-2.363a6.674 6.674 0 008.055-2.742c1.928-3.144 1.73-10.353-.934-16.61-3.617 4.663-8.503 6.491-10.435 9.63a6.674 6.674 0 002.194 9.173c.03.02.06.035.092.052l-1.214 2.215a.656.656 0 001.142.645h-.002z"/>
  <path stroke="url(#paint0_linear)" stroke-miterlimit="10" stroke-width="1.8" d="M9.023 26.273s-5.478-3.531-2.827-9.816c2.371-5.625 8.908-7.084 12.375-12.16.233-.343.724-.408.987-.092 4.607 5.593 5.255 17.107 1.687 21.494-3.474 4.28-8.451 2.22-8.451 2.22"/>
  <defs>
    <linearGradient id="paint0_linear" x1="5.47" x2="23.53" y1="28.41" y2="28.41" gradientUnits="userSpaceOnUse">
      <stop stop-color="#3250FC"/>
      <stop offset=".33" stop-color="#9E70FF"/>
      <stop offset=".67" stop-color="#2ACEEB"/>
      <stop offset="1" stop-color="#2CBF38"/>
    </linearGradient>
  </defs>
</svg>
