<svg xmlns="http://www.w3.org/2000/svg" viewBox="0 0 36 36">
  <g fill="none" fill-rule="evenodd">
    <circle fill="#231F20" cx="18" cy="18" r="18"/>
    <path d="M14.546 28.114c8.492 0 13.133-7.035 13.133-13.136v-.595a9.444 9.444 0 002.304-2.4c-.84.37-1.729.612-2.64.72a4.637 4.637 0 002.03-2.553 9.307 9.307 0 01-2.956 1.13 4.62 4.62 0 00-7.865 4.217 13.114 13.114 0 01-9.516-4.824 4.625 4.625 0 001.44 6.163 4.608 4.608 0 01-2.09-.578v.062a4.618 4.618 0 003.69 4.522 4.637 4.637 0 01-2.085.079 4.618 4.618 0 004.32 3.206 9.314 9.314 0 01-6.835 1.92 13.066 13.066 0 007.078 2.074" fill="#FFF"/>
  </g>
</svg>
