<svg xmlns="http://www.w3.org/2000/svg" viewBox="0 0 36 36">
  <g fill="none" fill-rule="evenodd">
    <circle fill="#BFBFBF" cx="18" cy="18" r="18"/>
    <path d="M14.546 28.114c8.492 0 13.136-7.035 13.136-13.136 0-.199-.005-.398-.012-.597a9.365 9.365 0 002.304-2.39 9.275 9.275 0 01-2.652.727 4.637 4.637 0 002.03-2.554 9.258 9.258 0 01-2.93 1.12 4.617 4.617 0 00-7.867 4.21 13.104 13.104 0 01-9.517-4.824 4.617 4.617 0 001.428 6.163 4.569 4.569 0 01-2.09-.578v.06a4.62 4.62 0 003.703 4.527 4.637 4.637 0 01-2.085.079 4.624 4.624 0 004.312 3.206 9.26 9.26 0 01-5.733 1.975c-.372 0-.74-.021-1.102-.064a13.032 13.032 0 007.075 2.076" fill="#FFF"/>
  </g>
</svg>
