<svg xmlns="http://www.w3.org/2000/svg" viewBox="0 0 1223.12 500">
  <path d="M969.86 139.79c0-27.47 26.39-51.49 76.39-51.49 36.52 0 66.59 18.48 82.78 61.7 3 8 7.24 10 17.89 6.65 24.28-7.62 59.48-18.85 59.48-18.85 6.76-2.28 9.15-6.75 7.31-13.71-.45-1.71-1.78-6.28-1.78-6.28C1190.11 42.32 1128 0 1042.83 0c-103 0-169 61-169 138.23 0 167.5 253.62 124 253.62 214.37 0 34.06-38.86 58-87.75 58-50 0-102.9-21.65-132.47-57-8.79-10.5-12.18-11.95-22.84-11.95h-54.52c-11.3 0-15.13 1.45-24.6 11.95-34.57 38.36-84.76 57-134.52 57-79.46 0-144.76-44.77-155.71-135.4h309.51c9.25 0 14.78-4.22 17.87-12 4.87-12.22 8.27-32.77 8.27-47.69C850.69 94.78 775.5 0 642 0 523 0 437.19 77 418.53 189.47h-27.3v-10.32C391.19 60.83 323 0 208.63 0 119.05 0 50.89 44.47 20.76 116.72c-3.16 7.57-1.51 12.64 6.07 16.12L85.74 156c9.87 3.86 14.84 3 18.3-3.95 23.96-48.35 53.1-64.81 102.55-64.81 56 0 89.91 34.27 89.91 87.94v14.45l-44.44.06C67.39 189.69 0 262.55 0 354.63 0 438.06 61.83 500 155.28 500c50.3 0 107.83-21.47 143.67-61.39 1.59 18.69 4 39.06 4.68 44.64.86 7.07 4.22 10.48 11.3 10.48h64.77c8.12 0 12.86-4.2 12.86-11.62l-.95-208.64h25C431.26 412.92 529.61 500 663.43 500c74.85 0 134.41-19.49 192.94-70.18C907.59 479.67 962.92 500 1041.15 500c101.3 0 182-58.84 182-148-.03-171.78-253.29-132.33-253.29-212.21zM169.77 410.25c-47.2 0-74.13-26-74.13-63 0-44.41 39.73-73.74 170.66-73.74h30.2c0 82.81-58.86 136.74-126.73 136.74zm473.8-323c61.83 0 110.95 42.86 113.66 103.57l-241.33-.24c11.56-66.08 62.27-103.34 127.67-103.34z" fill="#fff" data-name="Layer 2"/>
</svg>
