<svg xmlns="http://www.w3.org/2000/svg" viewBox="0 0 2750.01 500">
  <g fill="#fff" data-name="Layer 2">
    <path d="M969.87 139.79c0-27.47 26.38-51.49 76.38-51.49 36.52 0 66.59 18.48 82.78 61.7 3 8 7.24 10 17.9 6.65 24.27-7.62 59.47-18.85 59.47-18.85 6.76-2.28 9.15-6.75 7.32-13.71-.45-1.71-1.79-6.28-1.79-6.28C1190.11 42.32 1128 0 1042.84 0c-103 0-169 61-169 138.23 0 167.5 253.62 124 253.62 214.37 0 34.06-38.86 58-87.75 58-50 0-102.89-21.65-132.46-57-8.8-10.5-12.19-11.95-22.85-11.95h-54.53c-11.3 0-15.13 1.45-24.6 11.95-34.57 38.36-84.76 57-134.52 57-79.41 0-144.51-44.87-155.52-135.4h309.32c9.25 0 14.78-4.22 17.87-12 4.87-12.22 8.27-32.77 8.27-47.69C850.69 94.78 775.5 0 642 0 523 0 437.29 77.05 418.62 189.47h-27.39v-10.32C391.19 60.83 323 0 208.63 0 119.05 0 50.89 44.47 20.76 116.72c-3.16 7.57-1.51 12.64 6.07 16.12L85.74 156c9.87 3.86 14.84 3 18.3-3.95 24-48.32 53.1-64.78 102.55-64.78 56 0 89.91 34.27 89.91 87.94v14.45l-44.44.06C67.39 189.69 0 262.55 0 354.63 0 438.06 61.84 500 155.28 500c50.3 0 107.83-21.47 143.68-61.39 1.58 18.69 4 39.06 4.67 44.64.86 7.07 4.22 10.48 11.3 10.48h64.77c8.12 0 12.86-4.2 12.86-11.62l-.95-208.64h25.07C431.35 412.9 529.63 500 663.43 500c74.85 0 134.41-19.49 193-70.18C907.59 479.67 962.92 500 1041.15 500c101.31 0 182-58.84 182-148-.03-171.78-253.28-132.33-253.28-212.21zm-800.1 270.46c-47.2 0-74.13-26-74.13-63.05 0-44.4 39.73-73.73 170.66-73.73h30.2c0 82.85-58.86 136.78-126.73 136.78zm473.8-323c61.83 0 110.95 42.86 113.67 103.57l-241.33-.24c11.56-66.07 62.27-103.34 127.66-103.34zm748.64 72.48h53.68L1554.17 437h.94l107.35-277.25h54.62v333.71h-40.15V219h-.93c-1.87 5-3.58 10-5.14 14.93q-2.33 6.54-4.66 13.54-2.81 7.47-5.14 13.53l-91.48 232.45h-32.21L1445.89 261q-2.36-6.52-4.68-13.53-2.79-7-5.13-13.54c-1.56-5-3.27-10-5.13-14.93h-.95v274.46h-37.8zM1870.55 500q-27.55 0-49.25-10a107.24 107.24 0 01-36.64-27.36 121.08 121.08 0 01-22.87-40.45 150.83 150.83 0 01-7.93-49.33 147.19 147.19 0 018.16-49.33 122.1 122.1 0 0123.34-40.53 111.76 111.76 0 0136.17-27.36q21-10 46.68-10.06 27.07 0 47.84 10.11a97 97 0 0134.78 28.2q14 18.07 21.24 43.23t7.23 55.23h-186.7a119.07 119.07 0 006.53 33.88 87.14 87.14 0 0015.4 27.4 68.45 68.45 0 0023.81 18.1q14 6.5 32.21 6.5 26.6 0 43.4-12.37t23.34-37.11h36.88q-8.4 39.21-35.48 60.21T1870.55 500zm-2.34-224.51q-16.8 0-29.87 5.9a62.74 62.74 0 00-22.17 16.54 90.21 90.21 0 00-14.94 25 116.49 116.49 0 00-7.7 30.94h145.16q-1.86-36.84-19.84-57.63t-50.64-20.75zm8.87-118.57h46.68l-38.28 59.29h-32.2z"/>
    <path d="M2061.87 367l-80.28-114.83h43.87l57.41 87.76h.94l59.74-87.76h41.54l-79.35 110.63L2200 493.46h-44.34l-71.42-103.62h-.93l-70 103.62h-42.47zm155.43-207.27h37.81v46.68h-37.81zm0 92.41h37.81v241.32h-37.81zM2400.74 500q-27.09 0-48.55-10.05a110.29 110.29 0 01-36.64-27.36 122.1 122.1 0 01-23.34-40.45 153 153 0 010-98.66 122.1 122.1 0 0123.34-40.48 110.29 110.29 0 0136.64-27.36q21.46-10 48.55-10.06 42.93 0 69.77 22.63t33.38 61.39h-38.28q-4.18-24.74-20.77-38.75t-44.1-14q-19.15 0-33.85 7.5a69.56 69.56 0 00-24.5 20.59 92 92 0 00-14.7 30.41 145.12 145.12 0 000 74.86 89.41 89.41 0 0014.7 30.18 70.64 70.64 0 0024.5 20.36q14.71 7.49 33.85 7.48 29.4 0 46.44-15.87t19.37-43.87h37.34q-3.73 43.86-30.8 67.67T2400.74 500zm233.05 0q-27.08 0-48.55-10.05a110.39 110.39 0 01-36.64-27.36 122.45 122.45 0 01-23.34-40.45 153.19 153.19 0 010-98.66A122.45 122.45 0 012548.6 283a110.39 110.39 0 0136.64-27.36q21.47-10 48.55-10.06t48.55 10.06A110.49 110.49 0 012719 283a119.38 119.38 0 0123.1 40.45 157.4 157.4 0 010 98.66 119.38 119.38 0 01-23.1 40.45 110.49 110.49 0 01-36.66 27.44q-21.48 10-48.55 10zm0-31.74q19.14 0 33.61-7.48a71.42 71.42 0 0024.27-20.36 89.59 89.59 0 0014.7-30.18 145.41 145.41 0 000-74.86 92.18 92.18 0 00-14.7-30.41 70.32 70.32 0 00-24.27-20.59q-14.47-7.49-33.61-7.5t-33.84 7.5a69.56 69.56 0 00-24.5 20.59 92 92 0 00-14.71 30.41 145.41 145.41 0 000 74.86 89.42 89.42 0 0014.71 30.18 70.64 70.64 0 0024.5 20.36q14.7 7.49 33.84 7.48z"/>
  </g>
</svg>
