<svg xmlns="http://www.w3.org/2000/svg" viewBox="0 0 2716.95 500">
  <path d="M968.17 139.55c0-27.43 26.34-51.41 76.25-51.41 36.46 0 66.48 18.45 82.64 61.59 3 8 7.23 10 17.86 6.64 24.23-7.6 59.37-18.8 59.37-18.8 6.75-2.29 9.14-6.75 7.3-13.7-.44-1.7-1.77-6.27-1.77-6.27C1188 42.24 1126 0 1041 0 938.17 0 872.34 60.87 872.34 138c0 167.2 253.18 123.79 253.18 214 0 34-38.79 57.87-87.59 57.87-49.88 0-102.72-21.6-132.24-56.85-8.78-10.48-12.17-11.93-22.8-11.93h-54.47c-11.28 0-15.1 1.45-24.55 11.93-34.52 38.28-84.61 56.85-134.29 56.85-79.28 0-144.26-44.78-155.25-135.16h308.78c9.23 0 14.75-4.21 17.84-12 4.86-12.2 8.25-32.71 8.25-47.61C849.2 94.61 774.15 0 640.91 0c-118.8 0-204.38 76.91-223 189.14h-27.33l-.05-10.3C390.5 60.72 322.45 0 208.27 0 118.84 0 50.8 44.4 20.72 116.52c-3.15 7.55-1.51 12.61 6.06 16.09l58.81 23.09c9.85 3.85 14.81 3 18.27-3.94 23.91-48.25 53-64.67 102.37-64.67 55.94 0 89.75 34.21 89.75 87.79v14.42l-44.36.06C67.27 189.36 0 262.09 0 354c0 83.28 61.73 145.12 155 145.12 50.21 0 107.65-21.44 143.42-61.28 1.58 18.65 4 39 4.67 44.56.86 7.06 4.21 10.46 11.28 10.46H379c8.11 0 12.83-4.2 12.83-11.6l-.9-208.26h25C430.6 412.17 528.7 499.13 662.27 499.13c74.72 0 134.18-19.46 192.61-70.06 51.13 49.76 106.36 70.06 184.45 70.06 101.13 0 181.66-58.74 181.66-147.79.01-171.43-252.82-132.05-252.82-211.79zm-798.7 270c-47.11 0-74-26-74-62.93 0-44.33 39.66-73.6 170.37-73.6H296c0 82.67-58.77 136.51-126.53 136.51zm473-322.44c61.71 0 110.75 42.78 113.46 103.38L515 190.24c11.55-65.95 62.17-103.15 127.45-103.15zm742.18 73.21h41.94v333.16h-41.94zm129.58 123.94h.94a103 103 0 0131.45-27.72q18.41-10.49 45-10.49 37.74 0 59.41 19.89t21.67 57.75v169.79h-37.74V326.87q0-23.85-14.45-36.49t-40.07-12.64a69.92 69.92 0 00-26.56 4.92 63.94 63.94 0 00-21 13.57 59.64 59.64 0 00-13.75 21.06 74 74 0 00-4.89 27.38v148.81h-37.74v-240.9h37.74zM1807.09 500q-24.71 0-44.5-8.87a91.44 91.44 0 01-33.59-25.44q-13.76-16.57-21.2-40.15t-7.42-52.54q0-29.88 8.15-53.69t22.37-39.91a97.28 97.28 0 0133.55-24.74 101.19 101.19 0 0141.7-8.64q25.62 0 44.73 11.19a93.38 93.38 0 0130.76 28.42h.93V160.32h37.74v333.16h-37.74v-29.36h-.93q-13.52 17.72-31.22 26.79t-43.33 9.09zm1.39-31.69q20 0 34.48-7.23a65.64 65.64 0 0023.77-19.86 85.6 85.6 0 0013.75-29.88 153 153 0 004.42-37.85A142.61 142.61 0 001880 335a86.18 86.18 0 00-14.67-30.13 67.69 67.69 0 00-24.23-19.61q-14.44-7-33.08-7-17.25 0-30 7.24a62.81 62.81 0 00-21.44 20.08 96.1 96.1 0 00-13 30.36 162.84 162.84 0 000 75.45 93.23 93.23 0 0013 29.88 62.85 62.85 0 0021.67 19.86q12.99 7.2 30.23 7.18zm152.97-307.99h37.74v46.6h-37.74zm0 92.26h37.74v240.9h-37.74zm269.04 240.9q-35.89 0-41.47-35.88h-.47a119.48 119.48 0 01-13 13.75 98.1 98.1 0 01-17.24 12.34 226.19 226.19 0 01-22.13 10.95 69.06 69.06 0 01-27.73 5.36 123.15 123.15 0 01-32.15-4 71.85 71.85 0 01-25.86-12.55 60.25 60.25 0 01-17.24-21.33q-6.3-12.76-6.29-30.31 0-21.79 7.92-35.54a62.27 62.27 0 0121.9-22.27q14-8.5 33.31-13t41.71-8.29q12.57-1.89 23.3-4a82.32 82.32 0 0018.4-5.68 28.94 28.94 0 0011.88-9.47q4.2-5.93 4.2-15.87 0-20.85-14-32t-40.07-11.13q-29.37 0-44.27 12.81t-15.84 40.31H2039a93 93 0 016.53-32.38 68.51 68.51 0 0117.93-25.86q11.89-10.73 29.83-17t41.7-6.3a149.89 149.89 0 0135.41 4 77.3 77.3 0 0128.19 12.78 59.93 59.93 0 0118.64 23.48q6.75 14.66 6.76 36v114.28q0 14.9 5.12 21.87 3.26 5.1 11.19 5.11a35.79 35.79 0 009.31-1.4h1.4v27.48a74.48 74.48 0 01-8.39 2.57 51.22 51.22 0 01-12.13 1.17zm-113.69-22.37q18.63 0 32.61-6.29t22.84-15.61a63 63 0 0013.27-20.74 61 61 0 004.43-22.12v-41q-9.32 6.06-24.46 10.48A296.92 296.92 0 012135 383q-14 2.81-26.56 5.59a74.75 74.75 0 00-21.67 8.16 42.17 42.17 0 00-14.44 13.75q-5.36 8.38-5.36 21.43 0 12.12 4.43 19.81a32.28 32.28 0 0011.41 11.88 47.26 47.26 0 0015.84 5.82 99.87 99.87 0 0018.15 1.67zm191.13-186.85h.93a103.2 103.2 0 0131.45-27.72q18.41-10.49 45-10.49 37.74 0 59.41 19.89t21.67 57.75v169.79h-37.75V326.87q0-23.85-14.44-36.49t-40.07-12.64a69.88 69.88 0 00-26.56 4.92 63.74 63.74 0 00-21 13.57 59.37 59.37 0 00-13.75 21.06 74 74 0 00-4.89 27.38v148.81h-37.74v-240.9h37.74zm388.51 209.22q-35.88 0-41.47-35.88h-.47a117.78 117.78 0 01-13 13.75 97.73 97.73 0 01-17.24 12.34 226.19 226.19 0 01-22.13 10.95 69.06 69.06 0 01-27.73 5.36 123.15 123.15 0 01-32.15-4 71.85 71.85 0 01-25.86-12.55 60.36 60.36 0 01-17.24-21.33q-6.29-12.76-6.29-30.31 0-21.79 7.92-35.54a62.27 62.27 0 0121.9-22.27q14-8.5 33.32-13t41.7-8.29q12.59-1.89 23.3-4a82.15 82.15 0 0018.4-5.68 29 29 0 0011.89-9.47q4.18-5.93 4.19-15.87 0-20.85-14-32t-40.07-11.13q-29.35 0-44.27 12.81t-15.84 40.31h-36.34a93 93 0 016.52-32.38 68.53 68.53 0 0117.94-25.86q11.88-10.73 29.82-17t41.7-6.3a149.89 149.89 0 0135.41 4 77.3 77.3 0 0128.19 12.78 59.84 59.84 0 0118.64 23.48q6.75 14.66 6.76 36v114.28q0 14.9 5.12 21.87c2.18 3.4 5.9 5.11 11.19 5.11a35.79 35.79 0 009.31-1.4h1.44v27.48a75.13 75.13 0 01-8.39 2.57 51.31 51.31 0 01-12.17 1.17zm-113.69-22.37q18.63 0 32.62-6.29t22.83-15.61a63.23 63.23 0 0013.28-20.74 61 61 0 004.42-22.12v-41q-9.32 6.06-24.46 10.48a296.92 296.92 0 01-30.52 7.22q-14 2.81-26.56 5.59a74.75 74.75 0 00-21.67 8.16 42.26 42.26 0 00-14.44 13.75q-5.36 8.38-5.36 21.43 0 12.12 4.43 19.81a32.3 32.3 0 0011.42 11.88 47.1 47.1 0 0015.84 5.82 99.76 99.76 0 0018.17 1.62z" fill="#fff" data-name="Layer 2"/>
</svg>
