<svg xmlns="http://www.w3.org/2000/svg" viewBox="0 0 36 36">
  <g fill="none" fill-rule="evenodd">
    <circle fill="#BFBFBF" cx="18" cy="18" r="18"/>
    <g fill="#FFF" fill-rule="nonzero">
      <path d="M22.838 7.2h-9.676A5.967 5.967 0 007.2 13.162v9.679a5.967 5.967 0 005.962 5.959h9.679a5.967 5.967 0 005.961-5.962v-9.676A5.971 5.971 0 0022.838 7.2zm4.047 15.638a4.049 4.049 0 01-4.044 4.044h-9.68a4.049 4.049 0 01-4.043-4.044v-9.676a4.049 4.049 0 014.044-4.044h9.679a4.049 4.049 0 014.044 4.044v9.676z"/>
      <path d="M18 12.434A5.571 5.571 0 0012.434 18 5.571 5.571 0 0018 23.566 5.571 5.571 0 0023.566 18 5.571 5.571 0 0018 12.434zm0 9.214A3.655 3.655 0 0114.35 18 3.655 3.655 0 0118 14.35 3.654 3.654 0 0121.65 18 3.655 3.655 0 0118 21.648zm5.798-10.838c-.37 0-.732.148-.993.41a1.416 1.416 0 00-.413.994c0 .37.151.732.413.993a1.41 1.41 0 001.987 0 1.41 1.41 0 000-1.987 1.406 1.406 0 00-.994-.41z"/>
    </g>
  </g>
</svg>
