<svg xmlns="http://www.w3.org/2000/svg" fill="none" viewBox="0 0 32 32">
  <path fill="#BFBFBF" d="M24.454 20.74v-9.763L16 6.096l-8.455 4.88v9.764L16 25.62l8.454-4.881z"/>
  <path fill="url(#paint0_linear)" d="M27.886 22.72l-6.878 3.972a1.874 1.874 0 11-.953-1.424l6.122-3.534V9.982l-6.394-3.69v7.902a1.873 1.873 0 11-1.709 0V6.28l.033-2.886 2.521 1.411 7.258 4.19V22.72zM12.73 14.17a1.871 1.871 0 00-.854 3.537v7.526l-6.054-3.5V9.982l5.669-3.27a1.87 1.87 0 10-.924-1.435L4.114 8.996V22.72l6.919 3.995 2.553 1.408V17.707a1.87 1.87 0 00-.855-3.536z"/>
  <defs>
    <linearGradient id="paint0_linear" x1="4.11" x2="27.89" y1="16" y2="16" gradientUnits="userSpaceOnUse">
      <stop stop-color="#3250FC"/>
      <stop offset=".05" stop-color="#3A52FC"/>
      <stop offset=".13" stop-color="#5159FD"/>
      <stop offset=".23" stop-color="#7564FE"/>
      <stop offset=".33" stop-color="#9E70FF"/>
      <stop offset=".4" stop-color="#8D7EFC"/>
      <stop offset=".53" stop-color="#60A2F4"/>
      <stop offset=".67" stop-color="#2ACEEB"/>
      <stop offset=".92" stop-color="#2CC362"/>
      <stop offset="1" stop-color="#2CBF38"/>
    </linearGradient>
  </defs>
</svg>
