<svg xmlns="http://www.w3.org/2000/svg" viewBox="0 0 40 29">
  <defs>
    <linearGradient x1="0%" y1="100%" x2="100%" y2="100%" id="a">
      <stop stop-color="#3250FC" offset="0%"/>
      <stop stop-color="#9E70FF" offset="32.81%"/>
      <stop stop-color="#2ACEEB" offset="66.67%"/>
      <stop stop-color="#2CBF38" offset="100%"/>
    </linearGradient>
  </defs>
  <g fill="none">
    <path d="M-1.239 27.66V3.28h2.571v21.808h13.604l.29.16c.072.04.28.128.613.226a7.47 7.47 0 002.1.281 8.05 8.05 0 002.091-.252c.193-.052.354-.106.484-.158.064-.025.095-.04.092-.038l.28-.146h13.782V3.281h2.571v24.452H21.473a7.043 7.043 0 01-.772.252 10.59 10.59 0 01-2.761.342c-1.055 0-2-.144-2.825-.386a7.203 7.203 0 01-.797-.281H-1.24z" fill="url(#a)" transform="translate(2)"/>
    <path d="M20.606 2.384C25.225.47 30.195.044 34.814 1.124v22.11c-4.62-1.078-9.59-.654-14.208 1.261V2.385zM5.09 1.124C9.732.031 14.74.456 19.394 2.383v22.111c-4.643-1.927-9.65-2.351-14.305-1.26V1.123z" fill="#BFBFBF"/>
  </g>
</svg>
