<svg viewBox="0 0 20 20" fill="none" xmlns="http://www.w3.org/2000/svg">
  <path d="M14.567 12.167a3.162 3.162 0 00-1.146-1.145 3.067 3.067 0 00-1.577-.419H8.148a3.126 3.126 0 00-2.722 1.564 2.88 2.88 0 00-.295.685l3.888 3.889a1.345 1.345 0 001.906 0l3.916-3.916a2.525 2.525 0 00-.274-.658zm-2.963-7.735A3.196 3.196 0 007.23 5.598a3.196 3.196 0 001.165 4.375 3.196 3.196 0 004.375-1.166 3.197 3.197 0 00-1.166-4.375zm-6.596 9.984v.137l.411.274-.411-.411z" fill="#BFBFBF"/>
  <path d="M9.98 19.576a2.755 2.755 0 01-1.961-.813l-6.74-6.74a2.77 2.77 0 010-3.922l6.74-6.74a2.77 2.77 0 013.92 0L18.68 8.1a2.777 2.777 0 010 3.92l-6.74 6.741a2.754 2.754 0 01-1.96.814zm0-17.828a1.56 1.56 0 00-1.112.462l-6.74 6.74a1.567 1.567 0 000 2.223l6.74 6.741a1.567 1.567 0 002.223 0l6.74-6.74a1.577 1.577 0 000-2.224l-6.74-6.74a1.561 1.561 0 00-1.112-.462z" fill="url(#paint0_linear)"/>
  <defs>
    <linearGradient id="paint0_linear" x1=".47" y1="19.58" x2="19.49" y2="19.58" gradientUnits="userSpaceOnUse">
      <stop stop-color="#3250FC"/>
      <stop offset=".33" stop-color="#9E70FF"/>
      <stop offset=".67" stop-color="#2ACEEB"/>
      <stop offset="1" stop-color="#2CBF38"/>
    </linearGradient>
  </defs>
</svg>
