<svg xmlns="http://www.w3.org/2000/svg" viewBox="0 0 36 36">
  <g fill="none" fill-rule="evenodd">
    <circle fill="#BFBFBF" cx="18" cy="18" r="18"/>
    <path d="M28.867 12.506a2.852 2.852 0 00-2.004-2.018C25.092 10.01 18 10.01 18 10.01s-7.092 0-8.86.478a2.843 2.843 0 00-2.005 2.018C6.66 14.285 6.66 18 6.66 18s0 3.715.473 5.494a2.852 2.852 0 002.004 2.018c1.769.478 8.86.478 8.86.478s7.093 0 8.861-.478a2.843 2.843 0 002.004-2.018c.473-1.781.473-5.494.473-5.494s.005-3.715-.468-5.494z" fill="#FFF"/>
    <path fill="#BFBFBF" d="M15.682 21.372v-6.744L21.607 18z"/>
  </g>
</svg>
