<svg xmlns="http://www.w3.org/2000/svg" viewBox="0 0 2254.93 500">
  <path d="M969.87 139.79c0-27.47 26.39-51.49 76.38-51.49 36.52 0 66.59 18.48 82.78 61.7 3 8 7.24 10 17.9 6.65 24.27-7.62 59.47-18.85 59.47-18.85 6.76-2.28 9.15-6.75 7.32-13.71-.45-1.71-1.79-6.28-1.79-6.28C1190.11 42.32 1128 0 1042.84 0c-103 0-169 61-169 138.23 0 167.5 253.62 124 253.62 214.37 0 34.06-38.86 58-87.75 58-50 0-102.89-21.65-132.46-57-8.8-10.5-12.19-11.95-22.85-11.95h-54.53c-11.3 0-15.13 1.45-24.6 11.95-34.57 38.36-84.75 57-134.52 57-79.41 0-144.51-44.87-155.52-135.4h309.32c9.25 0 14.78-4.22 17.87-12 4.87-12.22 8.27-32.77 8.27-47.69C850.69 94.78 775.5 0 642 0 523 0 437.29 77.05 418.62 189.47h-27.39v-10.32C391.19 60.83 323 0 208.63 0 119.05 0 50.89 44.47 20.76 116.72c-3.16 7.56-1.51 12.64 6.07 16.12L85.74 156c9.87 3.86 14.84 3 18.3-3.95 24-48.32 53.1-64.78 102.55-64.78 56 0 89.91 34.27 89.91 87.94v14.45l-44.44.06C67.39 189.69 0 262.55 0 354.63 0 438.06 61.84 500 155.28 500c50.3 0 107.84-21.47 143.68-61.39 1.58 18.69 4 39.06 4.67 44.64.86 7.07 4.22 10.48 11.3 10.48h64.77c8.12 0 12.86-4.2 12.86-11.62l-.95-208.64h25.07C431.35 412.9 529.63 500 663.43 500c74.85 0 134.41-19.49 193-70.18C907.59 479.67 962.92 500 1041.15 500c101.31 0 182-58.84 182-148-.03-171.78-253.28-132.33-253.28-212.21zm-800.1 270.46c-47.2 0-74.13-26-74.13-63.05 0-44.4 39.73-73.73 170.66-73.73h30.2c0 82.85-58.85 136.78-126.73 136.78zm473.8-323c61.83 0 110.95 42.86 113.67 103.56l-241.33-.23c11.56-66.08 62.27-103.34 127.66-103.34zm743.5 72.48h42v333.73h-42zm129.81 124.16h.94a103 103 0 0131.5-27.77q18.43-10.51 45-10.51 37.8 0 59.51 19.92t21.71 57.85v170.08h-37.81V326.57q0-23.9-14.47-36.56t-40.14-12.66a70 70 0 00-26.61 4.93 63.92 63.92 0 00-21 13.59 59.69 59.69 0 00-13.78 21.1 74.28 74.28 0 00-4.9 27.42v149.07h-37.81V252.14h37.81zM1810.25 500q-24.75 0-44.58-8.88a91.66 91.66 0 01-33.61-25.49q-13.75-16.61-21.23-40.22t-7.47-52.6q0-29.94 8.17-53.79t22.4-40a97.43 97.43 0 0133.61-24.78 101.37 101.37 0 0141.77-8.65q25.67 0 44.81 11.2a93.62 93.62 0 0130.81 28.48h.94V159.73h37.8v333.73h-37.8v-29.4h-.94q-13.53 17.74-31.27 26.83t-43.41 9.11zm1.4-31.74q20.07 0 34.54-7.25a65.74 65.74 0 0023.8-19.89 85.59 85.59 0 0013.78-29.94 152.9 152.9 0 004.43-37.91 143.54 143.54 0 00-4.9-38.6 86.82 86.82 0 00-14.7-30.18 68 68 0 00-24.27-19.65q-14.47-7-33.15-7-17.28 0-30.1 7.25a63 63 0 00-21.48 20.12 96.52 96.52 0 00-13.06 30.41 163 163 0 000 75.58 93.6 93.6 0 0013.06 29.94 63.15 63.15 0 0021.71 19.86q13.07 7.27 30.34 7.26zm153.23-308.53h37.81v46.68h-37.81zm0 92.41h37.81v241.32h-37.81zm269.52 241.32q-36 0-41.55-35.94h-.47a119 119 0 01-13.06 13.78 98.44 98.44 0 01-17.27 12.36 224.77 224.77 0 01-22.17 11 69.14 69.14 0 01-27.78 5.34 123 123 0 01-32.2-4 72 72 0 01-25.9-12.6 60.45 60.45 0 01-17.28-21.4q-6.3-12.79-6.3-30.37 0-21.84 7.93-35.6a62.33 62.33 0 0121.94-22.31q14-8.52 33.37-13.05t41.78-8.31q12.6-1.89 23.34-4a82.66 82.66 0 0018.44-5.7 29.09 29.09 0 0011.9-9.48q4.2-5.94 4.2-15.9 0-20.88-14-32t-40.15-11.16q-29.4 0-44.34 12.84T2079 327.3h-36.41a93.26 93.26 0 016.54-32.44 68.75 68.75 0 0118-25.91q11.89-10.74 29.87-17t41.78-6.31a150.4 150.4 0 0135.47 4 77.34 77.34 0 0128.24 12.81 60 60 0 0118.67 23.51q6.76 14.7 6.77 36.11v114.5q0 14.93 5.13 21.9c2.18 3.41 5.91 5.13 11.21 5.13a36 36 0 009.33-1.41h1.4v27.54a74.69 74.69 0 01-8.4 2.57 51.53 51.53 0 01-12.2 1.16zm-113.89-22.4q18.66 0 32.67-6.3t22.87-15.64a63.09 63.09 0 0013.3-20.77 61.06 61.06 0 004.44-22.17v-41.07q-9.35 6.06-24.51 10.5a300.53 300.53 0 01-30.57 7.23q-14 2.81-26.61 5.6a74.17 74.17 0 00-21.7 8.17 42.32 42.32 0 00-14.47 13.77q-5.37 8.4-5.37 21.47 0 12.13 4.43 19.84a32.44 32.44 0 0011.44 11.91 47.13 47.13 0 0015.87 5.82 99.24 99.24 0 0018.21 1.64z" fill="#231f20" data-name="Layer 2"/>
</svg>
