<svg xmlns="http://www.w3.org/2000/svg" viewBox="0 0 3186.72 500">
  <path d="M969.86 139.79c0-27.47 26.39-51.49 76.38-51.49 36.53 0 66.6 18.48 82.79 61.7 3 8 7.24 10 17.89 6.65 24.28-7.62 59.48-18.85 59.48-18.85 6.76-2.28 9.15-6.75 7.32-13.71-.46-1.71-1.79-6.28-1.79-6.28C1190.1 42.32 1128 0 1042.83 0c-103 0-169 61-169 138.23 0 167.5 253.62 124 253.62 214.37 0 34.06-38.86 58-87.75 58-50 0-102.9-21.65-132.47-57-8.79-10.5-12.19-11.95-22.84-11.95h-54.52c-11.3 0-15.13 1.45-24.6 11.95-34.58 38.36-84.76 57-134.52 57-79.41 0-144.51-44.87-155.52-135.4h309.31c9.26 0 14.78-4.22 17.88-12 4.87-12.22 8.26-32.77 8.26-47.69C850.68 94.78 775.5 0 642 0 523 0 437.29 77.05 418.61 189.47h-27.38l-.05-10.32C391.18 60.83 323 0 208.63 0 119.05 0 50.88 44.47 20.76 116.72c-3.16 7.56-1.52 12.64 6.07 16.12L85.74 156c9.87 3.86 14.84 3 18.3-3.95 24-48.32 53.1-64.78 102.55-64.78 56 0 89.91 34.27 89.91 87.94v14.45l-44.44.06C67.39 189.69 0 262.55 0 354.63 0 438.06 61.83 500 155.28 500c50.29 0 107.84-21.47 143.67-61.39 1.58 18.69 4 39.06 4.68 44.64.86 7.07 4.22 10.48 11.3 10.48h64.77c8.12 0 12.85-4.2 12.85-11.62l-.94-208.64h25.07C431.35 412.9 529.62 500 663.42 500c74.86 0 134.42-19.49 193-70.18 51.17 49.85 106.5 70.18 184.73 70.18 101.3 0 182-58.84 182-148-.03-171.78-253.29-132.33-253.29-212.21zM169.77 410.25c-47.2 0-74.14-26-74.14-63.05 0-44.4 39.74-73.73 170.67-73.73h30.2c0 82.85-58.86 136.78-126.73 136.78zm473.8-323c61.83 0 110.95 42.86 113.66 103.56l-241.33-.23c11.57-66.08 62.27-103.34 127.67-103.34zM1536 500q-35.49 0-64.42-12.87a140.35 140.35 0 01-49.24-36q-20.31-23.18-31.51-55.23t-11.2-70q0-37 10.73-68.79t31-55.22a145.68 145.68 0 0149.72-37q29.4-13.56 66.74-13.57 29.42 0 52.75 7.93t40.14 22.17a115.62 115.62 0 0127.29 33.86 127.36 127.36 0 0113.77 42.47h-41.08q-6.08-31.27-30.11-50.65t-63.71-19.37q-27.56 0-48.78 10.54a105 105 0 00-35.94 29q-14.7 18.51-22.17 43.79a192.75 192.75 0 00-7.47 54.79q0 30.92 8.17 56.22t23.11 43.32a102.18 102.18 0 0036.21 27.9q21.24 9.85 47.38 9.83 23.81 0 41.31-7.46a86.35 86.35 0 0029.4-20.07 89.69 89.69 0 0018.44-29.41 121.89 121.89 0 007.93-35H1676q-.48 25.21-11.44 50.64T1635.85 465q-35.94 35-99.85 35zm277-.93q-27.08 0-48.54-10.05a110.42 110.42 0 01-36.64-27.36 122.1 122.1 0 01-23.34-40.45 153 153 0 010-98.67 122.3 122.3 0 0123.34-40.45 110.42 110.42 0 0136.64-27.36q21.46-10 48.54-10t48.55 10a110.53 110.53 0 0136.64 27.36 119.4 119.4 0 0123.1 40.45 157.24 157.24 0 010 98.67 119.21 119.21 0 01-23.1 40.45 110.53 110.53 0 01-36.65 27.34q-21.48 10.05-48.54 10.07zm0-31.75q19.14 0 33.61-7.47a71.33 71.33 0 0024.27-20.36 89.42 89.42 0 0014.71-30.18 145.41 145.41 0 000-74.86 91.91 91.91 0 00-14.72-30.45 70.12 70.12 0 00-24.27-20.59Q1832.13 276 1813 276t-33.84 7.5a69.46 69.46 0 00-24.5 20.59 91.7 91.7 0 00-14.7 30.41 145.41 145.41 0 000 74.86 89.22 89.22 0 0014.7 30.18 70.64 70.64 0 0024.5 20.36q14.71 7.42 33.84 7.42zm145.3-308.52h37.8v333.73h-37.8zm184.32 340.27q-27.07 0-48.54-10.05a110.46 110.46 0 01-36.65-27.36 122.25 122.25 0 01-23.33-40.45 153 153 0 010-98.67 122.45 122.45 0 0123.33-40.45 110.46 110.46 0 0136.65-27.36q21.47-10 48.54-10t48.54 10a110.67 110.67 0 0136.65 27.36 119.57 119.57 0 0123.1 40.45 157.24 157.24 0 010 98.67 119.38 119.38 0 01-23.1 40.45 110.67 110.67 0 01-36.65 27.34q-21.47 10.05-48.54 10.07zm0-31.75q19.14 0 33.61-7.47a71.42 71.42 0 0024.27-20.36 89.41 89.41 0 0014.7-30.18 145.41 145.41 0 000-74.86 91.89 91.89 0 00-14.7-30.45 70.21 70.21 0 00-24.27-20.59q-14.47-7.49-33.61-7.5t-33.84 7.5a69.58 69.58 0 00-24.51 20.59 92.09 92.09 0 00-14.7 30.41 145.41 145.41 0 000 74.86 89.59 89.59 0 0014.7 30.18 70.76 70.76 0 0024.51 20.36q14.7 7.51 33.84 7.51zm144.09-216.11h37.81v34.54h.93a93.83 93.83 0 0129.64-29.4 75.71 75.71 0 0141.31-11.67q22.41 0 38.74 11t24.27 32h.94q11.66-21 31.51-32a85.93 85.93 0 0142.23-11q32.22 0 52.75 19.92t20.54 57.85v170.08h-37.81v-168.3q0-22.49-13.07-35.15a43.38 43.38 0 00-31.27-12.66 53 53 0 00-22.41 4.93 60 60 0 00-18.9 13.59 66.39 66.39 0 00-13.07 20.62 67.93 67.93 0 00-4.91 26v150.97h-37.8v-168.3q0-22.49-11.43-35.15t-30.12-12.66a53.59 53.59 0 00-22.17 4.93 67.84 67.84 0 00-19.83 13.59 70 70 0 00-14.47 20.62 60.51 60.51 0 00-5.6 26v150.97h-37.81zm475.96 247.86q-24.75 0-43-8.87t-33.13-29.41h-.94v31.74h-37.81V158.8h37.81v126h.94a103.31 103.31 0 0132.2-29.41q18.66-10.72 45.28-10.73 22.86 0 41.77 8.65a91.84 91.84 0 0132.44 24.78q13.53 16.13 21 40t7.47 53.79q0 29-7 52.6t-20.53 40.22a90.8 90.8 0 01-32.91 25.49q-19.33 8.88-43.59 8.88zm-2.8-31.75q17.25 0 30.1-7.24a61.74 61.74 0 0021.24-19.89 93.57 93.57 0 0012.61-29.94 172.11 172.11 0 000-75.58 96.31 96.31 0 00-12.61-30.41 61.74 61.74 0 00-21-20.12q-12.61-7.25-29.88-7.25-19.6 0-34.3 7.49A65.4 65.4 0 002702 305a93.88 93.88 0 00-14 30.41 141.49 141.49 0 00-4.66 37 145.55 145.55 0 004.66 37.91 86.06 86.06 0 0014.24 29.94 67.72 67.72 0 0024 19.89q14.48 7.19 33.63 7.17zm136.8-308.52h37.81v46.67h-37.81zm0 92.41h37.81v241.32h-37.81zm269.51 241.32q-36 0-41.54-35.94h-.47a119.16 119.16 0 01-13.07 13.78 98.21 98.21 0 01-17.27 12.36 223.67 223.67 0 01-22.17 11 69.09 69.09 0 01-27.77 5.37 123.07 123.07 0 01-32.21-4 72 72 0 01-25.91-12.57 60.43 60.43 0 01-17.27-21.36q-6.3-12.81-6.3-30.38 0-21.83 7.94-35.59a62.22 62.22 0 0121.93-22.31q14-8.54 33.38-13.05t41.77-8.31q12.6-1.89 23.35-4a82.57 82.57 0 0018.43-5.7 29.2 29.2 0 0011.91-9.48q4.18-5.94 4.2-15.9 0-20.88-14-32t-40.11-11.3q-29.4 0-44.35 12.84t-15.86 40.38h-36.41a93.35 93.35 0 016.53-32.45 68.71 68.71 0 0118-25.9q11.91-10.74 29.87-17t41.78-6.3a150.4 150.4 0 0135.47 4 77.25 77.25 0 0128.24 12.8 60.06 60.06 0 0118.61 23.48q6.75 14.69 6.77 36.11v114.53q0 14.92 5.13 21.9 3.25 5.11 11.21 5.12a36 36 0 009.33-1.4h1.4v27.53a71 71 0 01-8.41 2.57 51.4 51.4 0 01-12.13 1.17zm-113.89-22.4q18.66 0 32.67-6.3t22.88-15.64a63.22 63.22 0 0013.29-20.77 61.1 61.1 0 004.44-22.17v-41.08q-9.34 6.07-24.5 10.5a298.07 298.07 0 01-30.58 7.23q-14 2.82-26.6 5.61a74.24 74.24 0 00-21.71 8.17 42.32 42.32 0 00-14.47 13.77q-5.37 8.4-5.37 21.47 0 12.13 4.44 19.84a32.31 32.31 0 0011.43 11.9 47 47 0 0015.87 5.83 99.32 99.32 0 0018.21 1.64z" fill="#fff" data-name="Layer 2"/>
</svg>
