<svg xmlns="http://www.w3.org/2000/svg" viewBox="0 0 2895.49 574">
  <path d="M971.66 140.05c0-27.53 26.44-51.59 76.53-51.59 36.59 0 66.72 18.52 82.94 61.81 3 8 7.25 10 17.92 6.67 24.32-7.63 59.58-18.88 59.58-18.88 6.78-2.29 9.18-6.77 7.33-13.74-.45-1.71-1.79-6.29-1.79-6.29C1192.31 42.39 1130.05 0 1044.76 0 941.55 0 875.49 61.09 875.49 138.49c0 167.8 254.09 124.23 254.09 214.77 0 34.12-38.93 58.08-87.91 58.08-50.06 0-103.09-21.69-132.72-57.06-8.8-10.52-12.21-12-22.88-12H831.4c-11.31 0-15.15 1.45-24.63 12-34.65 38.42-84.92 57.06-134.77 57.06-79.57 0-144.79-44.95-155.82-135.65h309.89c9.27 0 14.81-4.23 17.91-12 4.88-12.24 8.28-32.83 8.28-47.77C852.26 95 776.94 0 643.22 0 524 0 438.1 77.19 419.39 189.82h-27.43v-10.34C391.91 60.94 323.61 0 209 0 119.27 0 51 44.56 20.8 116.94c-3.16 7.57-1.52 12.66 6.08 16.15l59 23.17c9.88 3.87 14.87 3 18.33-4 24-48.41 53.2-64.9 102.75-64.9 56.13 0 90.07 34.34 90.07 88.11V190l-44.53.06C67.51 190 0 263 0 355.29c0 83.58 62 145.64 155.57 145.64 50.38 0 108-21.52 143.94-61.51 1.58 18.72 4 39.13 4.68 44.73.86 7.08 4.23 10.49 11.32 10.49h64.89c8.14 0 12.88-4.21 12.88-11.63l-.94-209h25.11c14.7 139.68 113.15 227 247.2 227 75 0 134.66-19.53 193.31-70.31 51.31 49.94 106.74 70.31 185.12 70.31 101.49 0 182.31-58.95 182.31-148.32 0-172.14-253.73-132.61-253.73-212.64zM170.08 411c-47.28 0-74.27-26.07-74.27-63.16 0-44.49 39.81-73.87 171-73.87h30.26C297.05 357 238.09 411 170.08 411zM644.76 87.4c61.94 0 111.16 42.94 113.88 103.76l-241.77-.24C528.45 124.74 579.24 87.4 644.76 87.4zm732.86 71.81h141.69q52.85 0 80.44 29a76.49 76.49 0 0115.9 25 86.87 86.87 0 015.61 32q0 28.06-14.26 45.13t-39.52 25v1.4a104.3 104.3 0 0126.42 10.05 82.23 82.23 0 0121.51 16.83 74 74 0 0114.27 23.63 85.34 85.34 0 015.14 30.39 97.48 97.48 0 01-6.31 35.78 85.16 85.16 0 01-18 28.28q-14 15-35.3 23.39t-48.4 8.41h-149.19zm136.55 143.1q30.87 0 47.93-14.27t17.07-40.45q0-24.32-15.67-38.12t-43.72-13.79h-100.07v106.63zm10.76 153.38q34.59 0 52.37-16.83a54.57 54.57 0 0015-38.83q0-31.3-19.87-46.75t-50.27-15.44h-102.45v117.85zm297.41 37.87v-33.19h-.94a117.62 117.62 0 01-29.69 28.75q-16.61 11-43.26 11-37.41 0-59.39-21.12t-22-59.14V251.79H1705V419q0 24 14.26 36.87t40 12.91a64.07 64.07 0 0026.19-5.16 57.58 57.58 0 0019.87-14.33 65.31 65.31 0 0012.63-21.37 78 78 0 004.44-26.77V251.79h37.88v241.77zm79.82-334.35H1940v334.35h-37.88zM2079.81 574q-47.23 0-73.19-17.77t-29.22-49.11h35.07q2.8 20.1 20.58 28.53t45.82 8.41q33.68 0 51.44-15.31t17.77-47.35v-34.13h-.93q-13.58 17.31-29.46 27.35t-42.09 10.06a101.45 101.45 0 01-42.79-8.9 99 99 0 01-33.44-24.84 113.5 113.5 0 01-21.74-37.94q-7.71-22-7.72-48.26 0-28.11 8.19-50.37t22.44-37.71a95.42 95.42 0 0133-23.44 100.74 100.74 0 0139.75-8q26.65 0 44.19 10.05a92.26 92.26 0 0129.7 27.36h.93v-30.84H2186v228.68q0 23.85-7.48 41.39a76.52 76.52 0 01-21.52 29.22 91.09 91.09 0 01-33.67 17.31 158.48 158.48 0 01-43.52 5.61zm-2.34-121.12q21 0 35.07-6.8a56.83 56.83 0 0022.45-19 82 82 0 0012.16-28.62 160.33 160.33 0 003.74-35.63q0-39.86-17.54-62.82t-56.35-23q-34.14 0-51.2 24.38t-17.07 63.77q0 39.85 17.53 63.77t51.21 23.95zm341.14 40.68q-36 0-41.62-36h-.47a119.58 119.58 0 01-13.09 13.81 98.12 98.12 0 01-17.31 12.38 223.39 223.39 0 01-22.21 11 69.1 69.1 0 01-27.82 5.38 123.59 123.59 0 01-32.27-4 72.34 72.34 0 01-26-12.59 60.58 60.58 0 01-17.3-21.41q-6.32-12.82-6.32-30.43 0-21.87 7.95-35.66a62.47 62.47 0 0122-22.35q14-8.55 33.44-13.08t41.85-8.32q12.63-1.89 23.38-4a82.6 82.6 0 0018.47-5.71 29.16 29.16 0 0011.93-9.5q4.2-5.94 4.21-15.93 0-20.91-14-32.1t-40.22-11.17q-29.46 0-44.42 12.86t-15.9 40.45h-36.48a93.37 93.37 0 016.55-32.5 68.88 68.88 0 0118-25.95q11.92-10.77 29.93-17.07t41.85-6.32a150.41 150.41 0 0135.54 4 77.66 77.66 0 0128.3 12.83 60.17 60.17 0 0118.7 23.56q6.78 14.72 6.78 36.17v114.66q0 14.94 5.15 21.94 3.26 5.13 11.22 5.13a35.64 35.64 0 009.35-1.41h1.4v27.59a75.54 75.54 0 01-8.41 2.57 51.68 51.68 0 01-12.16 1.17zm-114.1-22.44q18.69 0 32.73-6.31t22.91-15.67a63.18 63.18 0 0013.33-20.81 61.32 61.32 0 004.45-22.21V365q-9.36 6.07-24.56 10.52a301.05 301.05 0 01-30.63 7.24q-14 2.82-26.65 5.61a74.51 74.51 0 00-21.75 8.19 42.37 42.37 0 00-14.49 13.8q-5.38 8.42-5.38 21.51 0 12.15 4.44 19.87a32.4 32.4 0 0011.46 11.93 47.32 47.32 0 0015.9 5.84 99.64 99.64 0 0018.24 1.61zM2496.33 292h.93a98.43 98.43 0 0129.23-30.39Q2545 249 2569.28 249a41.92 41.92 0 018.41.7 51.24 51.24 0 017 2.1v36.49h-1.4a42.8 42.8 0 00-7.72-1.88 72.25 72.25 0 00-9.12-.46 69.91 69.91 0 00-26.65 5.14 71.35 71.35 0 00-22.45 14.5 65.67 65.67 0 00-15.43 23.14 80.67 80.67 0 00-5.61 30.63v134.2h-37.88V251.79h37.88zm108.57-132.79h37.88V206h-37.88zm0 92.58h37.88v241.77h-37.88zm270.01 241.77q-36 0-41.62-36h-.46a118.85 118.85 0 01-13.1 13.81 98 98 0 01-17.3 12.38 224.48 224.48 0 01-22.21 11 69.18 69.18 0 01-27.83 5.38 123.51 123.51 0 01-32.26-4 72.47 72.47 0 01-26-12.59 60.69 60.69 0 01-17.3-21.41q-6.32-12.82-6.31-30.43 0-21.87 8-35.66a62.39 62.39 0 0122-22.35q14-8.55 33.43-13.08t41.86-8.32q12.61-1.89 23.38-4a82.93 82.93 0 0018.47-5.71 29.12 29.12 0 0011.92-9.5q4.22-5.94 4.21-15.93 0-20.91-14-32.1t-40.21-11.17q-29.47 0-44.43 12.86t-15.9 40.45h-36.47a93.36 93.36 0 016.54-32.5 68.91 68.91 0 0118-25.95q11.92-10.77 29.93-17.07t41.85-6.32a150.47 150.47 0 0135.54 4 77.61 77.61 0 0128.29 12.83 60.19 60.19 0 0118.71 23.56q6.76 14.72 6.78 36.17v114.66q0 14.94 5.14 21.94 3.27 5.13 11.22 5.13a35.77 35.77 0 009.36-1.41h1.4v27.59a75.09 75.09 0 01-8.42 2.57 51.62 51.62 0 01-12.21 1.17zm-114.1-22.44q18.71 0 32.74-6.31t22.91-15.67a63.34 63.34 0 0013.33-20.81 61.3 61.3 0 004.44-22.21V365q-9.36 6.07-24.55 10.52a301.68 301.68 0 01-30.63 7.24q-14 2.82-26.66 5.61a74.55 74.55 0 00-21.74 8.19 42.41 42.41 0 00-14.5 13.8q-5.37 8.42-5.38 21.51 0 12.15 4.45 19.87a32.45 32.45 0 0011.45 11.93 47.4 47.4 0 0015.9 5.84 99.64 99.64 0 0018.24 1.61z" fill="#fff" data-name="Layer 2"/>
</svg>
