<svg xmlns="http://www.w3.org/2000/svg" viewBox="0 0 2597.93 500">
  <path class="cls-1" d="M1493.91 159.73h47.14l123.23 333.73h-45.75l-35.47-101.75H1450l-35.94 101.75h-42.94zm-31.74 197.91h109.22l-38.27-112q-2.34-7-4.67-15.39-2.81-8-5.14-14.95-2.34-8.39-5.13-16.8h-.93q-2.8 8-5.14 16.34-2.34 7-5.13 15.41t-5.14 15.39zm261.29-73.75h.93a103.21 103.21 0 0131.51-27.77q18.43-10.51 45-10.51 37.82 0 59.51 19.92t21.71 57.86v170.07h-37.81V326.57q0-23.9-14.47-36.55t-40.14-12.67a70 70 0 00-26.61 4.93 64.29 64.29 0 00-21 13.59 59.62 59.62 0 00-13.73 21.13 74 74 0 00-4.9 27.42v149.04h-37.81V252.15h37.81zM2016.82 500q-24.75 0-44.58-8.88a91.55 91.55 0 01-33.6-25.49q-13.79-16.61-21.24-40.22t-7.47-52.6q0-29.93 8.17-53.79t22.4-40a97.27 97.27 0 0133.61-24.77 101.23 101.23 0 0141.78-8.66q25.65 0 44.8 11.21a93.48 93.48 0 0130.81 28.47h.93V159.73h37.81v333.73h-37.81v-29.4h-.93q-13.55 17.74-31.27 26.83t-43.41 9.11zm1.4-31.74q20.05 0 34.54-7.25a65.74 65.74 0 0023.8-19.89 85.31 85.31 0 0013.77-29.94 152.42 152.42 0 004.44-37.91 143.41 143.41 0 00-4.9-38.59 86.71 86.71 0 00-14.71-30.19 67.85 67.85 0 00-24.27-19.65q-14.47-7-33.14-7-17.26 0-30.11 7.25a62.91 62.91 0 00-21.47 20.12 96.55 96.55 0 00-13.07 30.41 163.35 163.35 0 000 75.57 93.73 93.73 0 0013.07 29.94 63.06 63.06 0 0021.71 19.87q13.06 7.27 30.34 7.26zM2275.59 500q-27.59 0-49.25-10a107.43 107.43 0 01-36.64-27.36 121.25 121.25 0 01-22.87-40.45 151 151 0 01-7.93-49.33 147 147 0 018.17-49.33A122.25 122.25 0 012190.4 283a111.84 111.84 0 0136.18-27.36q21-10 46.67-10.06 27.08 0 47.85 10.08a97 97 0 0134.77 28.1q14 18 21.24 43.08t7.23 55h-186.7a120.6 120.6 0 006.53 34.08 87.72 87.72 0 0015.41 27.53 68.44 68.44 0 0023.8 18.2q14 6.54 32.21 6.54 26.6 0 43.41-12.37t23.33-37.11h36.88q-8.4 39.21-35.47 60.21T2275.59 500zm-2.34-224.51q-16.8 0-29.87 5.87a62.78 62.78 0 00-22.17 16.44 89.49 89.49 0 00-14.94 24.88 115.66 115.66 0 00-7.7 30.76h145.17q-1.87-36.63-19.84-57.29t-50.65-20.66zM2502.71 500q-50 0-77-22.18t-29.87-63.24h38.74q1.86 15.87 7.93 26.14a49.66 49.66 0 0015.17 16.34 60.34 60.34 0 0020.78 8.64 117.18 117.18 0 0025.2 2.56q29.87 0 42.94-11.48t13.07-28.36q0-10.31-3.5-17.12a29.24 29.24 0 00-11.2-11.47 77.67 77.67 0 00-19.61-8q-11.9-3.27-28.7-7-17.74-3.74-34.07-8a101.76 101.76 0 01-28.71-12 59.13 59.13 0 01-19.88-20.31q-7.47-12.64-7.47-32.35 0-30.45 22.18-48.5t64.64-18.06q45.27 0 67.91 20.08t26.84 55.54h-38.74q-2.79-23.81-16.33-34.77t-40.61-11q-26.14 0-37.34 10.08t-11.2 24.6q0 9.85 4.2 16.18t12.6 10.54a92.35 92.35 0 0020.54 7q12.12 2.83 27.54 6.1 18.19 3.76 34.3 8.21a98.3 98.3 0 0128.47 12.65 57.85 57.85 0 0119.38 21.33q7 13.13 7 34.21 0 18.29-7 32.11a63.44 63.44 0 01-19.61 23q-12.6 9.15-30.1 13.83a149.35 149.35 0 01-38.49 4.7zM969.85 139.79c0-27.47 26.39-51.49 76.38-51.49 36.52 0 66.6 18.48 82.79 61.7 3 8 7.23 10 17.89 6.65 24.27-7.62 59.47-18.85 59.47-18.85 6.76-2.28 9.16-6.75 7.32-13.71-.45-1.71-1.79-6.28-1.79-6.28C1190.09 42.32 1127.94 0 1042.82 0c-103 0-169 61-169 138.23 0 167.49 253.62 124 253.62 214.37 0 34.06-38.86 58-87.74 58-50 0-102.9-21.64-132.47-56.95-8.79-10.5-12.19-11.95-22.84-11.95h-54.54c-11.29 0-15.12 1.45-24.59 11.95-34.57 38.35-84.76 56.92-134.52 56.92-79.41 0-144.51-44.86-155.52-135.39h309.31c9.25 0 14.78-4.22 17.88-12 4.87-12.21 8.26-32.76 8.26-47.68C850.67 94.78 775.49 0 642 0 523 0 437.29 77 418.61 189.47h-27.38l-.05-10.32C391.18 60.83 323 0 208.63 0 119.05 0 50.88 44.48 20.76 116.72c-3.16 7.57-1.51 12.64 6.07 16.12L85.74 156c9.86 3.86 14.84 3 18.3-3.95 23.96-48.35 53.1-64.81 102.55-64.81 56 0 89.9 34.27 89.9 87.94v14.45l-44.44.06C67.38 189.69 0 262.55 0 354.63 0 438.05 61.83 500 155.28 500c50.29 0 107.83-21.47 143.67-61.38 1.58 18.68 4 39.05 4.68 44.64.85 7.07 4.22 10.47 11.29 10.47h64.77c8.13 0 12.86-4.2 12.86-11.61l-.94-208.64h25.06C431.34 412.89 529.61 500 663.41 500c74.86 0 134.41-19.48 193-70.17C907.57 479.67 962.9 500 1041.13 500c101.31 0 182-58.83 182-148-.02-171.78-253.28-132.33-253.28-212.21zM169.77 410.24c-47.2 0-74.13-26-74.13-63 0-44.4 39.73-73.73 170.66-73.73h30.19c0 82.8-58.85 136.73-126.72 136.73zm473.79-323c61.83 0 111 42.86 113.67 103.56l-241.33-.23c11.56-66.06 62.27-103.33 127.66-103.33z" data-name="Layer 2"/>
</svg>
