<svg xmlns="http://www.w3.org/2000/svg" viewBox="0 0 36 36">
  <g fill="none" fill-rule="evenodd">
    <circle fill="#231F20" cx="18" cy="18" r="18"/>
    <path d="M28.867 12.506a2.846 2.846 0 00-2.006-2.018c-1.769-.48-8.861-.48-8.861-.48s-7.092 0-8.86.48a2.846 2.846 0 00-2.007 2.018c-.48 1.779-.48 5.494-.48 5.494s0 3.715.48 5.494a2.846 2.846 0 002.006 2.018c1.769.48 8.861.48 8.861.48s7.092 0 8.86-.48a2.846 2.846 0 002.007-2.018c.48-1.779.48-5.494.48-5.494s-.007-3.715-.48-5.494z" fill="#FFF"/>
    <path fill="#231F20" d="M15.68 21.372v-6.744L21.606 18z"/>
  </g>
</svg>
