<svg xmlns="http://www.w3.org/2000/svg" viewBox="0 0 3109.24 580">
  <g fill="#fff" data-name="Layer 2">
    <path d="M1361.75 160h45.4l82.36 249q1.88 6.09 4.22 13.57 1.86 7.49 4.21 14.51 2.32 8.42 4.68 16.85h.93l4.68-16.85q2.34-7 4.22-15a90.41 90.41 0 014.21-13.1l81.43-249h44l-117.48 334.6h-46.33zm310.75 0h37.9v46.8h-37.9zm0 92.67h37.9v242h-37.9zm192.81 248.46q-27.61 0-49.38-10.07a107.51 107.51 0 01-36.73-27.43 121.75 121.75 0 01-22.94-40.56 151.6 151.6 0 01-8-49.47 147.59 147.59 0 018.19-49.46 122.63 122.63 0 0123.4-40.55 111.87 111.87 0 0136.27-27.43q21.06-10.08 46.8-10.09 27.13 0 48 10a97.07 97.07 0 0134.86 28q14 18 21.3 42.9t7.25 54.8h-187.2a123.2 123.2 0 006.55 34.54 89.34 89.34 0 0015.45 27.91 68.8 68.8 0 0023.87 18.47q14 6.63 32.29 6.62 26.67 0 43.52-12.4t23.4-37.21h37q-8.42 39.32-35.56 60.37t-68.34 21.06zM1863 276q-16.85 0-30 5.81a62.9 62.9 0 00-22.23 16.28 88.46 88.46 0 00-15 24.65 113 113 0 00-7.72 30.48h145.55q-1.87-36.28-19.89-56.76T1863 276zm-20.62-116h43l41.65 49.61h-40.71l-22.93-29.49h-.94l-23.87 29.49h-39.78zm148.82 92.63h35.1v-76.29h37.91v76.29H2111v30.88h-46.8v156q0 12.54 6.31 17.41t18 4.88a54.85 54.85 0 0011.23-1.17c3.75-.77 6.71-1.48 8.9-2.11h1.4v32.77q-6.56 1.4-14.27 2.34a135.1 135.1 0 01-16.15.93q-23.4 0-38.38-10.46t-15-36V283.51h-35.1zM2230.34 160h44.46l152.57 232.6q4.22 6.56 8.42 14t8 14q4.22 7.49 7.95 15h.94V160H2492v334.58h-43l-153.61-233.06q-4.21-6.07-8.42-13.34t-8-13.81c-2.81-5-5.61-9.83-8.42-14.5h-.94v274.71h-39.31zm508.71 334.58q-36 0-41.65-36h-.47a118.05 118.05 0 01-13.1 13.81 97.76 97.76 0 01-17.32 12.4 223.79 223.79 0 01-22.23 11 69.4 69.4 0 01-27.84 5.38 123.69 123.69 0 01-32.29-4 72.35 72.35 0 01-26-12.61 60.64 60.64 0 01-17.31-21.42q-6.33-12.84-6.32-30.45 0-21.89 7.95-35.69a62.43 62.43 0 0122-22.37q14-8.55 33.46-13.08t41.89-8.33q12.63-1.9 23.4-4.05a82.34 82.34 0 0018.48-5.71 29.29 29.29 0 0011.94-9.51q4.22-6 4.21-15.94 0-20.94-14-32.12t-40.25-11.19q-29.48 0-44.46 12.87T2583.21 328h-36.5a93.3 93.3 0 016.55-32.52 68.93 68.93 0 0118-26q11.92-10.75 29.95-17.08t41.88-6.32a151.19 151.19 0 0135.57 4 77.77 77.77 0 0128.34 12.8 60.24 60.24 0 0118.72 23.59q6.77 14.71 6.78 36.19v114.88q0 15 5.15 22 3.27 5.13 11.23 5.13a36.15 36.15 0 009.36-1.4h1.41v27.61a78.13 78.13 0 01-8.43 2.57 51.71 51.71 0 01-12.17 1.13zm-114.19-22.46q18.72 0 32.76-6.32t22.93-15.68a63.29 63.29 0 0013.34-20.83 61.33 61.33 0 004.45-22.22v-41.19q-9.37 6.09-24.57 10.53a302.34 302.34 0 01-30.66 7.26q-14 2.81-26.67 5.61a74.47 74.47 0 00-21.76 8.19 42.38 42.38 0 00-14.51 13.81q-5.39 8.42-5.38 21.53 0 12.17 4.44 19.89a32.5 32.5 0 0011.47 11.93 47.17 47.17 0 0015.91 5.85 99.75 99.75 0 0018.25 1.64zm162.86-219.49h37.91v34.63h.94a94.22 94.22 0 0129.71-29.49 75.93 75.93 0 0141.42-11.7q22.47 0 38.85 11t24.33 32.06h.94q11.68-21.06 31.59-32.06a86.22 86.22 0 0142.35-11q32.29 0 52.89 20t20.59 58v170.51h-37.91V325.84q0-22.56-13.1-35.25a43.5 43.5 0 00-31.36-12.69 53.26 53.26 0 00-22.46 4.93 60.48 60.48 0 00-19 13.63 66.76 66.76 0 00-13.1 20.68 68.09 68.09 0 00-4.91 26.09v151.35h-37.91V325.84q0-22.56-11.47-35.25t-30.19-12.69a53.78 53.78 0 00-22.22 4.93 68.18 68.18 0 00-19.89 13.63 70.24 70.24 0 00-14.51 20.68 60.67 60.67 0 00-5.62 26.09v151.35h-37.91z"/>
    <circle cx="1852.72" cy="555.96" r="24.04"/>
    <path d="M391.19 179.19C391.19 60.83 323 0 208.63 0 119.05 0 50.89 44.47 20.76 116.72c-3.16 7.57-1.51 12.64 6.07 16.12L85.74 156c9.87 3.86 14.84 3 18.3-3.95 23.96-48.35 53.1-64.81 102.55-64.81 56 0 89.91 34.27 89.91 87.94v98.29c0 82.85-58.86 136.78-126.73 136.78-47.2 0-74.13-26-74.13-63 0-44.41 39.73-73.74 170.66-73.74h195.23v-84.09l-209.47.27C67.39 189.69 0 262.55 0 354.63 0 438.06 61.83 500 155.28 500c50.3 0 107.83-21.47 143.67-61.39 1.59 18.69 4 39.06 4.68 44.64.86 7.07 4.22 10.48 11.3 10.48h64.77c8.12 0 12.86-4.2 12.86-11.62z"/>
    <path d="M969.86 139.79c0-27.47 26.39-51.49 76.39-51.49 36.52 0 66.59 18.48 82.78 61.7 3 8 7.24 10 17.89 6.65 24.28-7.62 59.48-18.85 59.48-18.85 6.76-2.28 9.15-6.75 7.31-13.71-.45-1.71-1.78-6.28-1.78-6.28C1190.11 42.32 1128 0 1042.83 0c-103 0-169 61-169 138.23 0 167.5 253.62 124 253.62 214.37 0 34.06-38.86 58-87.75 58-50 0-102.9-21.65-132.47-57-8.79-10.5-12.19-11.95-22.84-11.95h-54.52c-11.3 0-15.13 1.45-24.6 11.95-34.58 38.36-84.76 57-134.52 57-87.18 0-157.34-53.88-157.34-163.13v-27.18c0-84.51 55.52-133 130.16-133 61.83 0 110.95 42.86 113.66 103.57l-280.53-.28v84.65h347.84c9.26 0 14.79-4.22 17.88-12 4.87-12.22 8.26-32.77 8.26-47.69C850.68 94.78 775.5 0 642 0 507 0 414.71 99.1 414.71 236.61c0 160.8 103.47 263.39 248.72 263.39 74.85 0 134.41-19.49 192.94-70.18C907.59 479.67 962.92 500 1041.15 500c101.3 0 182-58.84 182-148-.03-171.78-253.29-132.33-253.29-212.21z"/>
  </g>
</svg>
