<svg xmlns="http://www.w3.org/2000/svg" viewBox="0 0 2916.82 500">
  <path d="M969.87 139.79c0-27.47 26.39-51.49 76.38-51.49 36.52 0 66.59 18.48 82.78 61.7 3 8 7.24 10 17.9 6.65 24.27-7.62 59.47-18.85 59.47-18.85 6.76-2.28 9.15-6.75 7.32-13.71-.45-1.71-1.79-6.28-1.79-6.28C1190.11 42.32 1128 0 1042.83 0c-103 0-169 61-169 138.23 0 167.5 253.62 124 253.62 214.37 0 34.06-38.86 58-87.75 58-50 0-102.89-21.65-132.47-57-8.79-10.5-12.18-11.95-22.84-11.95h-54.52c-11.3 0-15.13 1.45-24.6 11.95-34.57 38.36-84.76 57-134.52 57-79.41 0-144.51-44.87-155.52-135.4h309.32c9.25 0 14.78-4.22 17.87-12 4.87-12.22 8.27-32.77 8.27-47.69C850.69 94.78 775.5 0 642 0 523 0 437.29 77.05 418.62 189.47h-27.39v-10.32C391.19 60.83 323 0 208.63 0 119.05 0 50.89 44.47 20.76 116.72c-3.16 7.56-1.51 12.64 6.07 16.12L85.74 156c9.87 3.86 14.84 3 18.3-3.95 24-48.32 53.1-64.78 102.55-64.78 56 0 89.91 34.27 89.91 87.94v14.45l-44.44.06C67.39 189.69 0 262.55 0 354.63 0 438.06 61.84 500 155.28 500c50.3 0 107.84-21.47 143.67-61.39 1.59 18.69 4 39.06 4.68 44.64.86 7.07 4.22 10.48 11.3 10.48h64.77c8.12 0 12.86-4.2 12.86-11.62l-.95-208.64h25.07C431.35 412.9 529.62 500 663.43 500c74.85 0 134.41-19.49 192.94-70.18C907.59 479.67 962.92 500 1041.15 500c101.31 0 182-58.84 182-148-.02-171.78-253.28-132.33-253.28-212.21zm-800.1 270.46c-47.2 0-74.13-26-74.13-63.05 0-44.4 39.73-73.73 170.66-73.73h30.2c0 82.85-58.85 136.78-126.73 136.78zm473.8-323c61.83 0 110.95 42.86 113.66 103.56l-241.32-.23c11.56-66.08 62.27-103.34 127.66-103.34zm744.31 72.48H1527q26.61 0 46.44 8.4a89.24 89.24 0 0149.48 52 102.79 102.79 0 015.83 35.24q0 46.22-26.37 72.12t-81.45 25.91h-91v140h-42zm42 159.63h87.75q35.47 0 52.51-16.57t17-45.51q0-30.34-17.5-45.74T1520 196.13h-90.09zm408.53 174.1q-36 0-41.54-35.94h-.48a119 119 0 01-13.06 13.78 98.06 98.06 0 01-17.27 12.36 224.77 224.77 0 01-22.17 11 69.1 69.1 0 01-27.78 5.37 123 123 0 01-32.2-4A72.1 72.1 0 011658 483.4a60.45 60.45 0 01-17.27-21.4q-6.3-12.79-6.3-30.37 0-21.84 7.94-35.6a62.22 62.22 0 0121.93-22.31q14-8.52 33.37-13.05t41.78-8.31q12.6-1.89 23.34-4a82.5 82.5 0 0018.44-5.7 29.09 29.09 0 0011.9-9.48q4.2-5.94 4.2-15.9 0-20.88-14-32t-40.14-11.16q-29.42 0-44.35 12.84T1683 327.3h-36.41a93.26 93.26 0 016.54-32.44 68.75 68.75 0 0118-25.91q11.91-10.74 29.87-17t41.78-6.31a150.4 150.4 0 0135.47 4 77.34 77.34 0 0128.24 12.81 59.92 59.92 0 0118.67 23.51q6.76 14.7 6.77 36.11v114.5q0 14.93 5.13 21.9c2.18 3.41 5.91 5.13 11.21 5.13a35.92 35.92 0 009.33-1.41h1.4v27.54a74.69 74.69 0 01-8.4 2.57 51.47 51.47 0 01-12.19 1.16zm-113.89-22.4q18.66 0 32.67-6.3t22.87-15.64a63.09 63.09 0 0013.3-20.77 61.06 61.06 0 004.44-22.17v-41.07q-9.35 6.06-24.51 10.5a300.53 300.53 0 01-30.57 7.23q-14 2.81-26.61 5.6a74.28 74.28 0 00-21.7 8.17 42.32 42.32 0 00-14.47 13.77q-5.37 8.4-5.37 21.47 0 12.13 4.44 19.84a32.42 32.42 0 0011.43 11.91 47.13 47.13 0 0015.87 5.82 99.24 99.24 0 0018.21 1.64zM1916 283.89h.94a102.92 102.92 0 0131.5-27.77q18.43-10.51 45-10.51 37.8 0 59.51 19.92t21.7 57.85v170.08h-37.8V326.57q0-23.9-14.47-36.56t-40.15-12.66a69.9 69.9 0 00-26.6 4.93 64.07 64.07 0 00-21 13.59 59.8 59.8 0 00-13.77 21.1 74.07 74.07 0 00-4.9 27.42v149.07h-37.81V252.14H1916zm389.17 209.57q-35.94 0-41.54-35.94h-.47a119 119 0 01-13.06 13.78 98.44 98.44 0 01-17.27 12.36 223.9 223.9 0 01-22.18 11 69.06 69.06 0 01-27.77 5.37 123.18 123.18 0 01-32.21-4 72.05 72.05 0 01-25.9-12.56A60.45 60.45 0 012107.5 462q-6.32-12.79-6.31-30.37 0-21.84 7.94-35.6a62.33 62.33 0 0121.94-22.31q14-8.52 33.37-13.05t41.78-8.31q12.6-1.89 23.34-4a82.66 82.66 0 0018.44-5.7 29.09 29.09 0 0011.9-9.48q4.2-5.94 4.2-15.9 0-20.88-14-32t-40.1-11.2q-29.4 0-44.34 12.84t-15.87 40.38h-36.41a93.26 93.26 0 016.54-32.44 68.83 68.83 0 0118-25.91q11.91-10.74 29.88-17t41.78-6.31a150.4 150.4 0 0135.47 4 77.34 77.34 0 0128.24 12.81 60 60 0 0118.67 23.51q6.77 14.7 6.77 36.11v114.5q0 14.93 5.13 21.9c2.18 3.41 5.91 5.13 11.21 5.13a36 36 0 009.33-1.41h1.4v27.54a74.69 74.69 0 01-8.4 2.57 51.56 51.56 0 01-12.23 1.16zm-113.89-22.4q18.66 0 32.68-6.3t22.87-15.64a63.25 63.25 0 0013.3-20.77 61.25 61.25 0 004.43-22.17v-41.07q-9.33 6.06-24.5 10.5a300.53 300.53 0 01-30.57 7.23q-14 2.81-26.61 5.6a74.35 74.35 0 00-21.71 8.17 42.29 42.29 0 00-14.46 13.77q-5.37 8.4-5.37 21.47 0 12.13 4.43 19.84a32.44 32.44 0 0011.44 11.91 47.13 47.13 0 0015.87 5.82 99.21 99.21 0 0018.2 1.64zm153.65-218.92h37.81v34.54h.94a93.83 93.83 0 0129.64-29.4 75.7 75.7 0 0141.3-11.67q22.41 0 38.75 11t24.27 32h.93q11.67-21 31.51-32a86 86 0 0142.25-11q32.21 0 52.74 19.92t20.54 57.85v170.08h-37.81V325.17q0-22.5-13.07-35.16a43.39 43.39 0 00-31.28-12.66 53 53 0 00-22.4 4.93 60.26 60.26 0 00-18.91 13.59 66.74 66.74 0 00-13.06 20.62 68 68 0 00-4.9 26v150.97h-37.81V325.17q0-22.5-11.44-35.16t-30.1-12.66a53.49 53.49 0 00-22.17 4.93 68 68 0 00-19.85 13.59 70.18 70.18 0 00-14.46 20.62 60.54 60.54 0 00-5.61 26v150.97h-37.81zm551.35 241.32q-36 0-41.54-35.94h-.47a119.16 119.16 0 01-13.07 13.78 97.69 97.69 0 01-17.27 12.36 223.67 223.67 0 01-22.17 11A69.09 69.09 0 012774 500a123.07 123.07 0 01-32.21-4 72 72 0 01-25.9-12.56 60.34 60.34 0 01-17.28-21.44q-6.32-12.79-6.31-30.37 0-21.84 7.94-35.6a62.3 62.3 0 0121.93-22.31q14-8.52 33.38-13.05t41.78-8.31q12.59-1.89 23.33-4a82.33 82.33 0 0018.44-5.7 29.18 29.18 0 0011.91-9.48q4.18-5.94 4.19-15.9 0-20.88-14-32t-40.14-11.16q-29.42 0-44.34 12.84t-15.88 40.38h-36.4a93.25 93.25 0 016.53-32.44 68.86 68.86 0 0118-25.91q11.91-10.74 29.88-17t41.77-6.31a150.49 150.49 0 0135.48 4 77.49 77.49 0 0128.24 12.81 60 60 0 0118.66 23.4q6.77 14.7 6.78 36.11v114.57q0 14.93 5.13 21.9c2.17 3.41 5.91 5.13 11.2 5.13a36.05 36.05 0 009.34-1.41h1.4v27.54a75.54 75.54 0 01-8.41 2.57 51.47 51.47 0 01-12.16 1.16zm-113.89-22.4q18.66 0 32.67-6.3t22.87-15.64a63.12 63.12 0 0013.31-20.77 61.25 61.25 0 004.43-22.17v-41.07q-9.35 6.06-24.51 10.5a299.9 299.9 0 01-30.57 7.23q-14 2.81-26.6 5.6a74.35 74.35 0 00-21.71 8.17 42.41 42.41 0 00-14.47 13.77q-5.37 8.4-5.37 21.47 0 12.13 4.44 19.84a32.36 32.36 0 0011.44 11.91 47.08 47.08 0 0015.86 5.82 99.32 99.32 0 0018.21 1.64zm27.07-314.14h46.68l-38.28 59.29h-32.21z" fill="#fff" data-name="Layer 2"/>
</svg>
