<svg xmlns="http://www.w3.org/2000/svg" viewBox="0 0 3651.24 500.36">
  <g fill="#fff" data-name="Layer 2">
    <path d="M1389.43 159.19h139.46q26.67 0 46.56 8.43a89.42 89.42 0 0149.61 52.18 103 103 0 015.85 35.33q0 46.33-26.44 72.31t-81.66 26h-91.27v140.4h-42.11zm42.11 160.06h88q35.57 0 52.65-16.62t17.07-45.63q0-30.41-17.55-45.86t-49.84-15.45h-90.33zM1820 493.81v-33.23h-.93a117.9 117.9 0 01-29.72 28.79q-16.62 11-43.29 11-37.45 0-59.44-21.14t-22-59.18V251.86h37.91v167.33q0 24 14.27 36.9t40 12.92a64.13 64.13 0 0026.21-5.17 57.36 57.36 0 0019.89-14.34 65.31 65.31 0 0012.64-21.38 78 78 0 004.44-26.8V251.86h37.91v242zm192.79 6.55q-27.61 0-49.37-10.07a107.45 107.45 0 01-36.74-27.43 121.55 121.55 0 01-22.93-40.56 151.34 151.34 0 01-8-49.47 147.3 147.3 0 018.2-49.46 122.61 122.61 0 0123.39-40.55 112 112 0 0136.27-27.43q21.07-10.08 46.8-10.09 27.15 0 48 10.1a97.31 97.31 0 0134.87 28.18q14 18.07 21.29 43.2t7.26 55.18h-187.2a120.61 120.61 0 006.55 34.16 87.78 87.78 0 0015.44 27.61A68.74 68.74 0 001980.5 462q14 6.56 32.29 6.55 26.68 0 43.53-12.4t23.4-37.21h37q-8.43 39.32-35.57 60.37t-68.36 21.05zm-2.34-225.11q-16.85 0-30 5.89a63.13 63.13 0 00-22.23 16.48 89.72 89.72 0 00-15 24.95 115.89 115.89 0 00-7.73 30.84h145.55q-1.87-36.72-19.89-57.44t-50.7-20.72zm186.26 16.85h.94a98.58 98.58 0 0129.25-30.42q18.48-12.63 42.82-12.63a41.41 41.41 0 018.43.7 50.29 50.29 0 017 2.11v36.5h-1.4a41.88 41.88 0 00-7.72-1.87 72 72 0 00-9.13-.47 70 70 0 00-26.67 5.15 71.33 71.33 0 00-22.47 14.5 65.73 65.73 0 00-15.44 23.17 80.54 80.54 0 00-5.62 30.65v134.32h-37.9V251.86h37.9zm107.17-40.24H2339v-76.29h37.91v76.29h46.8v30.88h-46.8v156q0 12.54 6.32 17.41t18 4.88a55 55 0 0011.24-1.17c3.74-.77 6.7-1.48 8.89-2.11h1.4v32.77q-6.55 1.4-14.27 2.34a135.1 135.1 0 01-16.15.93q-23.4 0-38.37-10.46t-15-36V282.74h-35.1zm260.21 248.5q-27.15 0-48.67-10.07a110.4 110.4 0 01-36.74-27.43 122.58 122.58 0 01-23.4-40.56 153.47 153.47 0 010-98.93 122.63 122.63 0 0123.4-40.55 110.4 110.4 0 0136.74-27.43q21.51-10.08 48.67-10.09t48.67 10.09a110.6 110.6 0 0136.74 27.43 119.73 119.73 0 0123.16 40.55 157.67 157.67 0 010 98.93 119.68 119.68 0 01-23.16 40.56 110.6 110.6 0 01-36.74 27.43q-21.53 10.07-48.67 10.07zm0-31.82q19.18 0 33.69-7.5a71.62 71.62 0 0024.34-20.41 89.6 89.6 0 0014.74-30.26 145.6 145.6 0 000-75.06 92.33 92.33 0 00-14.74-30.5 70.4 70.4 0 00-24.34-20.64q-14.51-7.5-33.69-7.51t-33.93 7.51a69.74 69.74 0 00-24.57 20.64 92.33 92.33 0 00-14.74 30.5 145.6 145.6 0 000 75.06 89.6 89.6 0 0014.74 30.26 70.92 70.92 0 0024.57 20.37q14.74 7.54 33.93 7.54zm234.46-309.35h156.31a118.54 118.54 0 0140.25 6.55 88.14 88.14 0 0131.13 18.72 86.83 86.83 0 0120.12 29 93.81 93.81 0 017.25 37.44q0 30.89-13.8 52t-44.23 30.88v1.41a78.57 78.57 0 0121.29 11.47 54.71 54.71 0 0114.28 17.08 85.91 85.91 0 018.42 24.1 262.34 262.34 0 014.21 32.52q1.41 20.13 3 33.23a166.07 166.07 0 003.74 21.06 59.87 59.87 0 004.21 11.94c1.41 2.65 2.88 4.44 4.45 5.38v1.87h-45.4a15.86 15.86 0 01-4.44-6.32 53 53 0 01-2.81-12.17q-1.17-8.18-2.34-21.76t-2.58-34.63q-2.34-37-18.25-51.71t-49.6-14.74h-93.14v141.3h-42.12zm42.12 159.12h99.22q35.1 0 52.65-16.38t17.55-44.93q0-30.88-15.44-46.1t-52.42-15.21h-101.56zM3099 159.19h37.91V206H3099zm0 92.67h37.91v242H3099zm192.82 248.5q-27.15 0-48.67-10.07a110.4 110.4 0 01-36.74-27.43A122.58 122.58 0 013183 422.3a153.47 153.47 0 010-98.93 122.63 122.63 0 0123.4-40.55 110.4 110.4 0 0136.74-27.43q21.51-10.08 48.67-10.09 43 0 70 22.7t33.47 61.54h-38.38q-4.22-24.8-20.83-38.84t-44.22-14q-19.2 0-33.93 7.51a69.74 69.74 0 00-24.57 20.64 92.33 92.33 0 00-14.74 30.5 145.6 145.6 0 000 75.06 89.6 89.6 0 0014.74 30.26 70.92 70.92 0 0024.54 20.33q14.74 7.5 33.93 7.5 29.47 0 46.56-15.91t19.43-44h37.44q-3.77 44-30.89 67.85t-72.54 23.92zm242.89 0q-27.15 0-48.67-10.07a110.4 110.4 0 01-36.74-27.43 122.58 122.58 0 01-23.4-40.56 153.47 153.47 0 010-98.93 122.63 122.63 0 0123.4-40.55 110.4 110.4 0 0136.7-27.43q21.51-10.08 48.67-10.09t48.67 10.09a110.6 110.6 0 0136.74 27.43 119.73 119.73 0 0123.16 40.55 157.67 157.67 0 010 98.93 119.68 119.68 0 01-23.16 40.56 110.6 110.6 0 01-36.74 27.43q-21.48 10.07-48.63 10.07zm0-31.82q19.18 0 33.69-7.5a71.62 71.62 0 0024.34-20.41 89.6 89.6 0 0014.74-30.26 145.6 145.6 0 000-75.06 92.33 92.33 0 00-14.74-30.5 70.4 70.4 0 00-24.34-20.64q-14.51-7.5-33.69-7.51t-33.93 7.51a69.74 69.74 0 00-24.57 20.64 92.33 92.33 0 00-14.74 30.5 145.6 145.6 0 000 75.06 89.6 89.6 0 0014.74 30.26 70.92 70.92 0 0024.57 20.37q14.75 7.54 33.93 7.54zM391.19 179.19C391.19 60.83 323 0 208.63 0 119.05 0 50.89 44.47 20.76 116.72c-3.16 7.57-1.51 12.64 6.07 16.12L85.74 156c9.87 3.86 14.84 3 18.3-3.95 23.96-48.35 53.1-64.81 102.55-64.81 56 0 89.91 34.27 89.91 87.94v98.29c0 82.85-58.86 136.78-126.73 136.78-47.2 0-74.13-26-74.13-63 0-44.41 39.73-73.74 170.66-73.74h195.23v-84.09l-209.47.27C67.39 189.69 0 262.55 0 354.63 0 438.06 61.83 500 155.28 500c50.3 0 107.83-21.47 143.67-61.39 1.59 18.69 4 39.06 4.68 44.64.86 7.07 4.22 10.48 11.3 10.48h64.77c8.12 0 12.86-4.2 12.86-11.62z"/>
    <path d="M969.86 139.79c0-27.47 26.39-51.49 76.39-51.49 36.52 0 66.59 18.48 82.78 61.7 3 8 7.24 10 17.89 6.65 24.28-7.62 59.48-18.85 59.48-18.85 6.76-2.28 9.15-6.75 7.31-13.71-.45-1.71-1.78-6.28-1.78-6.28C1190.11 42.32 1128 0 1042.83 0c-103 0-169 61-169 138.23 0 167.5 253.62 124 253.62 214.37 0 34.06-38.86 58-87.75 58-50 0-102.9-21.65-132.47-57-8.79-10.5-12.19-11.95-22.84-11.95h-54.52c-11.3 0-15.13 1.45-24.6 11.95-34.58 38.36-84.76 57-134.52 57-87.18 0-157.34-53.88-157.34-163.13v-27.18c0-84.51 55.52-133 130.16-133 61.83 0 110.95 42.86 113.66 103.57l-280.53-.28v84.65h347.84c9.26 0 14.79-4.22 17.88-12 4.87-12.22 8.26-32.77 8.26-47.69C850.68 94.78 775.5 0 642 0 507 0 414.71 99.1 414.71 236.61c0 160.8 103.47 263.39 248.72 263.39 74.85 0 134.41-19.49 192.94-70.18C907.59 479.67 962.92 500 1041.15 500c101.3 0 182-58.84 182-148-.03-171.78-253.29-132.33-253.29-212.21z"/>
  </g>
</svg>
