<svg xmlns="http://www.w3.org/2000/svg" fill="none" viewBox="0 0 32 32">
  <path fill="#BFBFBF" d="M20.598 15.262a6.437 6.437 0 01-4.08-11.415H4.966v25.764h19.323V14.097a6.404 6.404 0 01-3.69 1.165zm2.012 10.355H6.583v-1.6h16.03l-.003 1.6zm0-3.204H6.583v-1.6h16.03l-.003 1.6zm0-3.2H6.583v-1.604h16.03l-.003 1.604z"/>
  <path fill="url(#paint0_linear)" d="M20.598 16.062a7.236 7.236 0 117.236-7.236 7.245 7.245 0 01-7.236 7.236zm0-12.873a5.636 5.636 0 105.637 5.637 5.643 5.643 0 00-5.637-5.637z"/>
  <path fill="#BFBFBF" d="M21.355 12.343v.993h-1.403v-.993c-.903-.141-1.665-.582-2.097-1.223l1.014-.903a2.273 2.273 0 001.794.805c.833 0 1.224-.183 1.224-.713 0-.45-.24-.651-1.565-.952-1.293-.301-2.194-.712-2.194-2.096 0-1.053.773-1.745 1.828-1.945V4.31h1.404v1.016c.742.14 1.324.5 1.836 1.033l-1.018.983c-.451-.457-.953-.723-1.594-.723-.753 0-1.006.275-1.006.582 0 .441.3.581 1.413.842 1.113.26 2.347.64 2.347 2.167.003 1.143-.608 1.925-1.983 2.133z"/>
  <defs>
    <linearGradient id="paint0_linear" x1="13.36" x2="27.83" y1="16.06" y2="16.06" gradientUnits="userSpaceOnUse">
      <stop stop-color="#3250FC"/>
      <stop offset=".33" stop-color="#9E70FF"/>
      <stop offset=".67" stop-color="#2ACEEB"/>
      <stop offset="1" stop-color="#2CBF38"/>
    </linearGradient>
  </defs>
</svg>
