<svg xmlns="http://www.w3.org/2000/svg" viewBox="0 0 3199.62 574">
  <path d="M969.85 139.79c0-27.48 26.39-51.49 76.38-51.49 36.53 0 66.6 18.48 82.79 61.69 3 8 7.24 10 17.89 6.65 24.27-7.61 59.47-18.84 59.47-18.84 6.77-2.28 9.16-6.76 7.32-13.71-.45-1.71-1.78-6.28-1.78-6.28C1190.09 42.32 1127.94 0 1042.82 0c-103 0-169 61-169 138.23 0 167.49 253.62 124 253.62 214.37 0 34.06-38.86 58-87.75 58-50 0-102.9-21.64-132.47-56.95-8.79-10.5-12.19-11.95-22.84-11.95h-54.52c-11.3 0-15.13 1.45-24.6 11.95-34.57 38.35-84.76 56.92-134.52 56.92-79.45 0-144.74-44.76-155.74-135.39h309.54c9.25 0 14.78-4.22 17.87-12 4.87-12.21 8.27-32.76 8.27-47.69C850.68 94.78 775.49 0 642 0 523 0 437.19 77 418.52 189.47h-27.29l-.05-10.32C391.18 60.83 323 0 208.63 0 119.05 0 50.88 44.47 20.76 116.72c-3.16 7.57-1.51 12.64 6.07 16.12L85.74 156c9.87 3.86 14.84 3 18.3-3.95 23.96-48.35 53.1-64.81 102.55-64.81 56 0 89.91 34.27 89.91 87.94v14.45l-44.44.06C67.39 189.69 0 262.55 0 354.63 0 438.05 61.83 500 155.28 500c50.29 0 107.83-21.47 143.67-61.38 1.58 18.68 4 39.05 4.68 44.64.85 7.07 4.22 10.47 11.29 10.47h64.77c8.13 0 12.86-4.2 12.86-11.61l-.94-208.64h25C431.25 412.92 529.6 500 663.42 500c74.85 0 134.41-19.48 192.94-70.17C907.58 479.67 962.91 500 1041.13 500c101.31 0 182-58.83 182-148-.02-171.78-253.28-132.33-253.28-212.21zM169.77 410.24c-47.2 0-74.14-26-74.14-63 0-44.4 39.74-73.73 170.67-73.73h30.2c0 82.8-58.86 136.73-126.73 136.73zm473.79-323c61.83 0 111 42.86 113.67 103.56l-241.34-.23c11.56-66.07 62.28-103.33 127.67-103.33zm851.31 72.46H1542l123.31 334h-45.77l-35.5-101.82H1451l-36 101.82h-43zm-31.76 198h109.29l-38.3-112.1c-1.56-4.66-3.12-9.81-4.67-15.41q-2.81-7.93-5.14-14.95-2.34-8.4-5.14-16.81h-.93q-2.81 8-5.14 16.35l-5.14 15.41c-1.86 5.6-3.58 10.75-5.13 15.41zm261.46-65.35h.93a98.23 98.23 0 0129.2-30.35q18.43-12.62 42.73-12.61a41.92 41.92 0 018.41.7 51 51 0 017 2.1v36.44h-1.39a43.78 43.78 0 00-7.71-1.88 74 74 0 00-9.11-.46 69.76 69.76 0 00-26.62 5.14 71.16 71.16 0 00-22.42 14.48 65.66 65.66 0 00-15.42 23.09 80.7 80.7 0 00-5.6 30.6v134.06h-37.83V252.18h37.83zM1928 574q-47.18 0-73.1-17.75t-29.19-49.05h35q2.81 20.09 20.55 28.5t45.78 8.4q33.63 0 51.37-15.29t17.76-47.3v-34.09h-.94q-13.56 17.28-29.43 27.32t-42 10q-23.37 0-42.74-8.88a99.14 99.14 0 01-33.4-24.81 113.4 113.4 0 01-21.71-37.9q-7.71-22-7.71-48.21 0-28.08 8.17-50.31t22.44-37.63a95.17 95.17 0 0132.93-23.42 100.67 100.67 0 0139.7-8q26.63 0 44.14 10.05a91.89 91.89 0 0129.66 27.37h.94v-30.82h37.83v228.4q0 23.82-7.48 41.34a76.42 76.42 0 01-21.48 29.19 90.78 90.78 0 01-33.63 17.28A158.11 158.11 0 011928 574zm-2.33-121q21 0 35-6.8a56.68 56.68 0 0022.42-19 81.9 81.9 0 0012.14-28.58 159.87 159.87 0 003.74-35.58q0-39.81-17.52-62.76t-56.28-23q-34.1 0-51.14 24.36t-17 63.69q0 39.81 17.51 63.7t51.15 23.97zm253.82 47.2q-27.55 0-49.27-10.06a107.47 107.47 0 01-36.67-27.37 121.34 121.34 0 01-22.88-40.48 151 151 0 01-7.94-49.37 147.2 147.2 0 018.17-49.36 122.26 122.26 0 0123.35-40.48 111.91 111.91 0 0136.2-27.37q21-10.07 46.71-10.07 27.08 0 47.87 10.09a97.08 97.08 0 0134.8 28.11q14 18 21.25 43.11t7.24 55.08h-186.83a120.32 120.32 0 006.54 34.1 87.91 87.91 0 0015.41 27.55 68.57 68.57 0 0023.82 18.22q14 6.54 32.23 6.53 26.63 0 43.44-12.37t23.36-37.13h36.89q-8.4 39.24-35.49 60.25t-68.2 21.02zm-2.33-224.66q-16.82 0-29.9 5.87a62.87 62.87 0 00-22.18 16.45 89.77 89.77 0 00-14.95 24.9 115.71 115.71 0 00-7.7 30.78h145.26q-1.87-36.65-19.85-57.33t-50.68-20.67zm176.97 8.4h.93a103.19 103.19 0 0131.53-27.78q18.45-10.52 45.07-10.52 37.83 0 59.55 19.94t21.72 57.89v170.19h-37.83v-167q0-23.91-14.48-36.59t-40.17-12.67a69.85 69.85 0 00-26.62 4.94 64.14 64.14 0 00-21 13.6 59.64 59.64 0 00-13.83 21.11 74.14 74.14 0 00-4.9 27.44v149.17h-37.8V252.18h37.83zm175.76-31.76h35v-76.13h37.83v76.13h46.71V283h-46.71v155.72q0 12.51 6.31 17.37t18 4.87a54 54 0 0011.21-1.17c3.73-.76 6.69-1.47 8.87-2.1h1.4v32.7q-6.54 1.39-14.24 2.34a134.59 134.59 0 01-16.12.93q-23.35 0-38.3-10.43t-14.94-36V283h-35zM2673 159.7h37.83v46.71H2673zm0 92.48h37.83v241.48H2673zm116.62 31.76h.94a103.15 103.15 0 0131.52-27.78q18.45-10.52 45.07-10.52 37.84 0 59.56 19.94t21.71 57.89v170.19h-37.83v-167q0-23.91-14.48-36.59T2856 277.4a69.9 69.9 0 00-26.63 4.94 64.24 64.24 0 00-21 13.6 59.76 59.76 0 00-13.77 21.11 74.14 74.14 0 00-4.91 27.44v149.17h-37.83V252.18h37.83zm389.45 209.72q-36 0-41.57-36h-.5a117.7 117.7 0 01-13 13.82 97.82 97.82 0 01-17.28 12.37 226.07 226.07 0 01-22.18 11 69.19 69.19 0 01-27.79 5.37 123.22 123.22 0 01-32.23-4 72.15 72.15 0 01-25.93-12.58 60.55 60.55 0 01-17.28-21.38q-6.3-12.81-6.3-30.39 0-21.84 7.94-35.62a62.39 62.39 0 0121.95-22.32q14-8.53 33.4-13.06t41.8-8.31q12.61-1.89 23.35-4a82.59 82.59 0 0018.45-5.7 29.15 29.15 0 0011.91-9.49q4.22-5.94 4.21-15.91 0-20.89-14-32.06t-40.16-11.16q-29.43 0-44.38 12.84t-15.88 40.4h-36.5a93.41 93.41 0 016.54-32.46 68.81 68.81 0 0118-25.92q11.93-10.74 29.9-17.05t41.8-6.31a150.19 150.19 0 0135.5 4 77.59 77.59 0 0128.26 12.81 60.11 60.11 0 0118.66 23.45q6.76 14.7 6.77 36.13v114.6q0 14.92 5.14 21.92 3.26 5.12 11.21 5.12a36 36 0 009.34-1.4h1.4v27.55a75.54 75.54 0 01-8.41 2.57 51.43 51.43 0 01-12.14 1.17zm-114-22.42q18.68 0 32.7-6.3t22.88-15.65A63.13 63.13 0 003134 428.5a61.34 61.34 0 004.43-22.18v-41.1q-9.34 6.07-24.52 10.5a297.68 297.68 0 01-30.59 7.24q-14 2.82-26.62 5.61a74 74 0 00-21.72 8.18 42.35 42.35 0 00-14.48 13.77q-5.37 8.42-5.37 21.49 0 12.14 4.44 19.85a32.37 32.37 0 0011.43 11.91 47 47 0 0015.88 5.83 99.32 99.32 0 0018.22 1.64z" fill="#231f20" data-name="Layer 2"/>
</svg>
